<svg id="svg" xmlns="http://www.w3.org/2000/svg" xmlns:xlink="http://www.w3.org/1999/xlink" width="400" height="258.94736842105266" viewBox="0, 0, 400,258.94736842105266"><g id="svgg"><path id="path0" d="M133.648 35.846 C 130.450 36.638,129.286 37.802,128.519 40.973 L 127.977 43.214 128.043 106.516 L 128.109 169.819 128.766 171.503 C 129.516 173.424,131.675 175.814,133.007 176.196 C 134.043 176.493,263.867 176.498,264.903 176.201 C 266.277 175.807,268.590 173.322,269.181 171.604 C 269.467 170.772,269.815 169.978,269.954 169.839 C 270.118 169.675,270.204 147.283,270.199 106.619 L 270.192 43.653 269.611 41.260 C 268.746 37.696,267.739 36.670,264.305 35.849 L 261.788 35.248 198.834 35.270 L 135.881 35.293 133.648 35.846 M257.422 39.877 C 258.012 40.146,258.595 40.534,258.717 40.741 C 258.838 40.947,259.412 41.413,259.992 41.775 C 260.571 42.138,261.262 42.767,261.527 43.173 C 261.792 43.579,262.338 44.221,262.740 44.599 C 263.875 45.665,263.775 47.091,262.464 48.516 C 261.049 50.055,260.474 51.480,261.023 52.087 C 261.248 52.335,261.594 53.151,261.791 53.898 C 261.988 54.646,262.256 55.365,262.386 55.495 C 262.838 55.947,261.105 58.887,260.054 59.450 L 259.098 59.962 259.245 61.540 C 259.475 64.005,257.961 65.542,255.052 65.797 L 253.498 65.933 253.309 67.454 C 253.092 69.200,252.850 69.574,251.602 70.095 C 250.621 70.505,250.705 70.780,252.200 72.051 C 252.625 72.412,252.717 72.813,252.719 74.298 C 252.721 76.553,252.268 77.244,247.813 81.797 C 246.107 83.540,244.590 85.187,244.441 85.457 C 244.293 85.726,243.792 86.262,243.329 86.649 C 242.866 87.036,242.487 87.514,242.487 87.711 C 242.487 87.909,242.166 88.275,241.775 88.524 C 240.406 89.395,240.421 89.241,240.300 102.979 C 240.203 113.997,239.975 116.829,239.141 117.344 C 238.942 117.467,238.692 119.067,238.463 121.684 C 238.101 125.818,237.853 126.972,237.166 127.732 C 236.966 127.952,236.620 129.000,236.397 130.059 C 236.114 131.405,235.790 132.196,235.322 132.684 C 234.460 133.584,233.180 137.318,233.160 138.990 C 233.151 139.702,232.981 140.500,232.783 140.762 C 232.584 141.025,232.342 141.724,232.245 142.317 C 231.937 144.207,230.154 146.114,228.695 146.114 C 228.486 146.114,227.949 146.464,227.502 146.891 C 226.291 148.049,222.510 147.844,221.728 146.578 C 221.618 146.400,220.141 146.206,217.963 146.083 C 212.768 145.791,211.529 145.558,210.644 144.710 C 209.969 144.063,208.106 143.588,206.032 143.532 C 205.859 143.527,205.327 143.181,204.851 142.762 C 204.374 142.343,203.435 141.863,202.765 141.694 C 202.094 141.525,201.123 141.051,200.607 140.641 C 200.091 140.231,199.215 139.760,198.660 139.593 C 198.106 139.427,197.394 139.039,197.077 138.730 C 196.761 138.421,195.933 137.887,195.236 137.543 C 194.540 137.200,193.789 136.643,193.567 136.305 C 193.346 135.967,192.644 135.467,192.007 135.194 C 191.370 134.921,190.664 134.494,190.437 134.246 C 190.211 133.998,189.702 133.589,189.307 133.338 C 188.911 133.087,188.270 132.595,187.882 132.245 C 187.494 131.896,186.768 131.342,186.269 131.015 C 185.771 130.689,185.210 130.103,185.023 129.715 C 184.837 129.327,184.294 128.847,183.818 128.648 C 183.341 128.449,182.874 128.042,182.780 127.744 C 182.685 127.446,182.494 127.202,182.354 127.202 C 181.995 127.202,176.425 121.633,176.425 121.274 C 176.425 121.110,176.023 120.785,175.533 120.551 C 175.026 120.309,174.506 119.801,174.330 119.377 C 174.160 118.965,173.695 118.460,173.298 118.255 C 172.901 118.049,172.500 117.642,172.407 117.350 C 172.314 117.057,171.810 116.379,171.287 115.842 C 169.075 113.571,168.386 112.634,168.103 111.511 C 167.885 110.645,167.616 110.242,167.068 109.958 C 166.660 109.747,166.097 109.125,165.817 108.576 C 165.536 108.026,165.122 107.506,164.896 107.419 C 164.419 107.236,163.731 105.728,163.731 104.866 C 163.731 104.509,163.369 103.967,162.816 103.497 C 162.053 102.849,161.862 102.471,161.661 101.215 C 161.479 100.070,161.241 99.542,160.666 99.005 C 160.058 98.437,159.849 97.933,159.593 96.419 C 159.374 95.119,159.077 94.303,158.629 93.770 C 157.933 92.943,157.646 91.467,157.360 87.232 C 157.232 85.341,157.101 84.832,156.582 84.216 C 155.745 83.221,155.695 81.094,156.492 80.352 C 156.785 80.079,157.188 79.229,157.388 78.464 C 157.834 76.751,158.851 75.808,160.720 75.377 C 161.450 75.209,162.305 74.909,162.620 74.712 C 162.936 74.514,163.627 74.352,164.156 74.352 C 165.867 74.352,168.209 73.420,169.480 72.233 C 169.892 71.848,170.878 71.344,171.670 71.114 C 172.463 70.884,173.357 70.466,173.658 70.186 C 174.251 69.633,175.159 69.351,177.641 68.949 C 178.524 68.807,179.573 68.450,179.973 68.156 C 180.867 67.499,182.441 67.193,186.140 66.957 C 188.534 66.804,189.247 66.652,190.600 66.007 L 192.210 65.240 201.480 65.006 C 212.174 64.736,211.872 64.778,213.690 63.301 C 214.451 62.682,215.176 62.176,215.300 62.176 C 215.425 62.176,215.677 61.895,215.860 61.551 C 216.422 60.491,223.872 53.033,225.521 51.879 C 227.686 50.364,228.474 50.244,229.546 51.268 C 230.631 52.305,231.306 52.283,232.645 51.164 C 233.813 50.188,234.207 50.044,236.010 49.939 C 237.231 49.867,237.599 48.776,236.748 47.751 C 236.561 47.525,236.551 47.300,236.719 47.085 C 236.859 46.907,237.177 46.217,237.426 45.551 C 237.955 44.137,238.640 43.753,240.483 43.838 C 241.637 43.892,244.301 41.835,244.301 40.891 C 244.301 39.944,247.303 39.470,247.982 40.309 C 248.845 41.376,249.605 41.969,250.110 41.969 C 250.413 41.969,250.908 42.142,251.210 42.353 C 251.733 42.719,251.766 42.693,251.938 41.775 C 252.381 39.413,254.661 38.624,257.422 39.877 M155.940 97.056 C 156.235 97.431,156.477 97.876,156.477 98.043 C 156.477 98.211,156.826 98.684,157.254 99.093 C 158.546 100.331,158.402 102.255,156.932 103.411 C 156.328 103.886,155.599 104.542,155.313 104.869 C 154.904 105.337,154.273 105.547,152.352 105.855 C 150.555 106.143,149.721 106.407,149.186 106.856 C 148.460 107.468,146.489 108.031,145.077 108.031 C 144.220 108.031,143.005 108.519,143.005 108.863 C 143.005 109.809,134.951 110.591,133.420 109.793 C 132.676 109.406,131.287 106.798,131.515 106.218 C 131.599 106.004,131.787 105.363,131.932 104.793 C 132.227 103.638,133.043 102.591,133.647 102.591 C 133.865 102.591,134.411 102.233,134.862 101.797 C 135.574 101.106,135.984 100.962,138.012 100.684 C 139.871 100.430,140.508 100.227,141.157 99.680 C 141.669 99.250,142.429 98.934,143.201 98.831 C 146.410 98.402,147.232 98.175,147.860 97.548 C 148.214 97.194,148.928 96.833,149.446 96.747 C 149.964 96.660,150.505 96.550,150.648 96.502 C 151.973 96.052,155.436 96.415,155.940 97.056 M166.321 113.544 C 167.950 114.286,169.011 116.134,168.761 117.796 C 168.523 119.383,165.646 122.321,163.899 122.761 C 163.289 122.915,162.564 123.289,162.289 123.593 C 161.657 124.292,160.550 124.870,159.844 124.870 C 159.545 124.870,158.927 125.266,158.471 125.749 C 158.015 126.232,157.206 126.766,156.672 126.935 C 156.138 127.104,155.223 127.641,154.639 128.129 C 154.056 128.616,153.374 129.016,153.126 129.016 C 152.877 129.016,152.215 129.465,151.655 130.013 C 150.879 130.775,150.346 131.055,149.410 131.195 C 148.425 131.343,148.110 131.521,147.811 132.100 C 147.563 132.578,147.020 132.977,146.193 133.286 C 145.508 133.542,144.802 133.866,144.624 134.006 C 144.411 134.174,144.189 134.168,143.974 133.989 C 143.794 133.840,142.925 133.551,142.042 133.347 C 138.023 132.418,137.405 127.603,141.062 125.715 C 141.490 125.495,142.087 125.049,142.390 124.725 C 142.694 124.400,143.368 124.018,143.888 123.874 C 144.409 123.730,145.166 123.258,145.571 122.825 C 146.065 122.296,146.662 121.981,147.390 121.864 C 148.193 121.736,148.639 121.474,149.113 120.853 C 149.486 120.363,150.261 119.821,150.977 119.550 C 151.651 119.295,152.442 118.810,152.734 118.474 C 153.027 118.137,153.703 117.741,154.236 117.594 C 154.769 117.447,155.502 116.993,155.866 116.585 C 156.300 116.097,156.985 115.733,157.862 115.524 C 158.818 115.296,159.468 114.928,160.152 114.226 C 160.869 113.490,161.353 113.225,162.095 113.164 C 163.619 113.039,165.605 113.217,166.321 113.544 M178.293 126.454 C 178.982 126.823,180.570 129.726,180.570 130.617 C 180.570 131.890,179.090 134.620,178.076 135.218 C 177.596 135.502,177.202 135.910,177.202 136.125 C 177.202 136.340,176.881 136.721,176.490 136.971 C 176.098 137.222,175.605 137.661,175.395 137.949 C 175.007 138.480,173.711 139.896,172.539 141.070 C 172.183 141.427,171.748 141.863,171.573 142.038 C 170.558 143.058,169.913 143.698,169.555 144.041 C 169.333 144.255,168.427 145.199,167.542 146.138 C 166.657 147.077,165.686 147.976,165.384 148.136 C 165.082 148.296,164.770 148.752,164.690 149.149 C 164.512 150.032,158.989 155.804,157.940 156.203 C 156.996 156.562,153.925 156.554,152.881 156.190 C 151.665 155.766,151.205 154.676,151.217 152.244 L 151.227 150.213 152.427 149.111 C 153.087 148.506,153.628 147.904,153.629 147.774 C 153.629 147.645,153.967 147.347,154.379 147.113 C 154.822 146.861,155.195 146.385,155.292 145.947 C 155.464 145.173,156.561 143.960,160.714 139.947 C 162.086 138.621,163.344 137.281,163.508 136.968 C 164.160 135.725,173.834 126.360,174.684 126.148 C 175.609 125.918,177.607 126.087,178.293 126.454 M191.787 137.694 C 192.300 138.193,192.894 138.601,193.107 138.601 C 194.775 138.601,194.761 143.629,193.088 145.382 C 192.696 145.793,192.333 146.580,192.195 147.317 C 192.036 148.168,191.689 148.847,191.094 149.474 C 190.538 150.058,190.112 150.857,189.913 151.684 C 189.734 152.434,189.292 153.306,188.865 153.756 C 188.459 154.184,187.988 155.056,187.819 155.695 C 187.650 156.334,187.189 157.225,186.794 157.675 C 186.399 158.125,185.939 159.059,185.773 159.752 C 185.607 160.445,185.119 161.413,184.687 161.907 C 184.256 162.401,183.839 163.124,183.761 163.515 C 182.958 167.528,176.620 168.261,174.644 164.569 C 173.992 163.350,174.437 159.548,175.270 159.229 C 175.469 159.152,175.973 158.339,176.389 157.421 C 176.857 156.388,177.347 155.688,177.674 155.585 C 178.187 155.422,178.269 155.204,178.619 153.055 C 178.725 152.404,179.033 151.893,179.577 151.468 C 180.216 150.967,180.422 150.560,180.594 149.449 C 180.771 148.310,180.977 147.916,181.726 147.280 C 182.281 146.810,182.643 146.269,182.642 145.911 C 182.642 145.019,183.295 143.640,183.926 143.198 C 184.257 142.966,184.634 142.250,184.844 141.453 C 185.040 140.710,185.237 140.056,185.282 140.000 C 188.032 136.540,189.912 135.874,191.787 137.694 M207.513 145.080 C 209.194 145.559,210.672 149.670,209.697 151.157 C 209.460 151.518,209.193 152.806,209.057 154.245 C 208.756 157.430,208.615 157.981,207.836 159.027 C 207.309 159.734,207.127 160.433,206.850 162.817 C 206.540 165.483,205.990 167.511,205.481 167.867 C 205.372 167.943,205.047 168.588,204.760 169.301 C 204.098 170.941,203.513 171.235,200.900 171.240 C 198.790 171.244,197.668 170.850,197.668 170.107 C 197.668 169.925,197.377 169.203,197.022 168.502 C 196.275 167.031,196.196 165.796,196.790 164.890 C 197.046 164.499,197.340 163.040,197.552 161.113 C 197.841 158.488,198.008 157.813,198.572 156.999 C 199.116 156.214,199.299 155.528,199.516 153.466 C 199.759 151.145,200.590 148.193,201.002 148.183 C 201.092 148.180,201.456 147.587,201.811 146.864 C 202.544 145.371,202.621 145.304,203.877 145.058 C 205.264 144.786,206.508 144.793,207.513 145.080 " stroke="none" fill="#de7622" fill-rule="evenodd"></path><path id="path1" d="M0.000 129.534 L 0.000 259.067 200.000 259.067 L 400.000 259.067 400.000 129.534 L 400.000 0.000 200.000 0.000 L 0.000 0.000 0.000 129.534 M266.122 34.639 C 268.570 36.008,269.041 36.472,270.365 38.817 L 271.632 41.062 271.632 105.873 L 271.632 170.684 271.081 171.287 C 270.778 171.619,270.385 172.344,270.207 172.898 C 269.677 174.552,267.179 176.869,265.498 177.266 C 263.876 177.648,135.711 177.751,133.049 177.372 C 131.704 177.180,131.374 177.011,130.403 176.012 C 129.793 175.384,129.179 174.870,129.037 174.870 C 128.896 174.870,128.192 173.669,127.473 172.200 L 126.166 169.529 126.171 106.591 C 126.176 42.937,126.207 40.852,127.145 39.800 C 127.415 39.497,127.792 38.854,127.983 38.372 C 128.670 36.636,131.417 34.428,133.519 33.923 C 133.963 33.817,163.646 33.747,199.482 33.769 L 264.637 33.808 266.122 34.639 M254.664 40.607 C 253.406 40.758,253.179 41.023,252.983 42.565 C 252.673 45.008,252.149 45.425,250.747 44.341 C 246.610 41.139,244.333 41.108,244.309 44.253 C 244.293 46.379,243.665 46.786,241.836 45.853 C 239.881 44.856,238.858 45.013,238.450 46.372 C 237.821 48.464,238.201 49.106,242.611 53.403 C 250.866 61.446,253.060 63.472,253.530 63.486 C 253.797 63.494,254.412 63.640,254.897 63.810 C 256.220 64.274,257.981 62.555,257.377 61.387 C 257.167 60.980,256.995 60.453,256.995 60.216 C 256.995 59.979,256.572 59.397,256.054 58.924 C 254.559 57.554,255.195 56.820,257.164 57.642 C 259.735 58.717,261.097 57.643,260.780 54.793 C 260.659 53.708,260.487 53.378,259.722 52.760 C 259.219 52.354,258.808 51.869,258.808 51.681 C 258.808 51.493,258.222 50.979,257.505 50.538 C 255.513 49.312,256.576 48.013,259.056 48.643 C 262.111 49.418,262.088 43.997,259.032 42.731 C 258.581 42.544,257.697 41.947,257.069 41.403 C 256.441 40.859,255.847 40.433,255.748 40.456 C 255.650 40.479,255.162 40.547,254.664 40.607 M248.038 48.942 C 249.026 50.034,247.953 51.349,246.872 50.371 C 246.252 49.810,246.236 49.255,246.826 48.806 C 247.426 48.351,247.511 48.360,248.038 48.942 M250.096 51.258 C 250.478 51.680,250.484 51.778,250.149 52.057 C 249.567 52.539,248.705 52.151,248.705 51.407 C 248.705 50.633,249.457 50.552,250.096 51.258 M234.249 51.347 C 233.495 52.100,233.870 54.313,234.849 54.890 C 235.349 55.186,235.872 55.725,236.010 56.088 C 236.149 56.452,236.467 56.822,236.719 56.911 C 237.456 57.173,238.083 57.817,238.083 58.313 C 238.083 58.566,238.345 58.853,238.666 58.951 C 239.487 59.201,240.155 59.844,240.155 60.383 C 240.155 60.674,240.477 60.947,241.039 61.132 C 242.287 61.544,242.699 62.769,241.697 63.087 C 241.016 63.303,239.896 62.583,239.896 61.929 C 239.896 61.641,239.652 61.360,239.313 61.256 C 238.491 61.006,237.824 60.363,237.824 59.822 C 237.824 59.569,237.562 59.281,237.241 59.184 C 236.423 58.934,235.751 58.291,235.751 57.757 C 235.751 57.489,235.441 57.196,234.991 57.039 C 234.572 56.894,234.052 56.430,233.834 56.008 C 233.610 55.575,233.143 55.168,232.759 55.072 C 232.385 54.978,231.808 54.630,231.476 54.298 C 230.389 53.211,228.597 52.509,227.398 52.700 C 226.005 52.923,225.423 53.465,216.623 62.747 C 215.621 63.804,213.614 65.549,213.380 65.567 C 213.217 65.579,212.034 65.701,210.751 65.838 C 209.469 65.975,205.686 66.150,202.345 66.226 C 197.699 66.332,196.147 66.451,195.746 66.731 C 195.457 66.933,194.810 67.101,194.308 67.104 C 193.805 67.106,192.461 67.277,191.321 67.483 C 190.181 67.689,188.627 67.862,187.867 67.867 C 187.089 67.872,185.666 68.159,184.609 68.524 C 183.576 68.880,181.225 69.471,179.384 69.838 C 177.543 70.204,175.852 70.670,175.627 70.874 C 175.401 71.078,174.356 71.538,173.303 71.896 C 172.251 72.254,171.292 72.720,171.173 72.933 C 171.054 73.146,170.467 73.565,169.870 73.865 C 169.272 74.164,168.486 74.686,168.124 75.025 C 167.415 75.689,165.488 76.165,163.501 76.167 C 160.799 76.171,159.182 77.323,158.280 79.889 C 157.539 81.997,157.603 82.625,159.244 89.378 C 159.469 90.304,159.914 92.286,160.233 93.782 C 160.852 96.687,161.082 97.409,161.387 97.409 C 161.638 97.409,162.305 99.021,162.717 100.624 C 162.897 101.323,163.312 102.129,163.641 102.415 C 163.969 102.700,164.439 103.469,164.686 104.122 C 164.932 104.776,165.576 105.875,166.116 106.565 C 166.656 107.254,167.098 107.970,167.098 108.154 C 167.098 108.339,167.394 108.683,167.755 108.920 C 168.117 109.157,168.664 109.870,168.973 110.504 C 169.281 111.139,169.625 111.658,169.737 111.658 C 169.850 111.658,170.231 112.117,170.585 112.677 C 170.939 113.238,171.445 113.908,171.709 114.167 C 171.974 114.426,172.527 115.104,172.940 115.674 C 173.617 116.610,174.716 117.849,175.982 119.101 C 176.237 119.353,176.703 119.836,177.018 120.174 C 177.333 120.513,178.086 121.289,178.692 121.900 C 179.297 122.511,179.793 123.119,179.793 123.251 C 179.793 123.384,180.090 123.627,180.452 123.793 C 180.815 123.958,181.311 124.440,181.553 124.865 C 181.796 125.289,182.319 125.772,182.716 125.936 C 183.113 126.101,183.637 126.486,183.882 126.791 C 184.126 127.096,184.698 127.608,185.153 127.928 C 185.608 128.249,186.053 128.743,186.143 129.027 C 186.233 129.310,186.770 129.779,187.336 130.067 C 187.902 130.356,188.797 130.974,189.325 131.441 C 189.853 131.908,190.722 132.553,191.256 132.876 C 191.791 133.198,192.228 133.555,192.228 133.668 C 192.228 133.782,192.580 134.021,193.010 134.199 C 193.441 134.377,194.073 134.856,194.415 135.263 C 194.757 135.669,195.658 136.245,196.418 136.543 C 197.177 136.841,198.031 137.351,198.316 137.676 C 198.601 138.002,199.400 138.474,200.092 138.725 C 200.784 138.977,201.732 139.518,202.199 139.928 C 202.666 140.338,203.174 140.674,203.328 140.674 C 203.948 140.674,206.120 141.532,206.606 141.969 C 206.891 142.225,208.004 142.613,209.079 142.832 C 210.154 143.051,212.012 143.588,213.209 144.025 C 214.972 144.668,215.805 144.822,217.601 144.838 C 218.821 144.848,220.460 144.961,221.244 145.088 C 226.019 145.864,228.165 145.567,229.887 143.895 C 231.199 142.621,231.345 142.247,231.366 140.108 C 231.395 137.176,231.698 135.575,232.354 134.876 C 232.673 134.536,233.282 133.573,233.706 132.737 C 234.129 131.902,234.696 130.810,234.965 130.311 C 235.234 129.812,235.648 128.281,235.884 126.908 C 236.120 125.535,236.469 124.112,236.659 123.745 C 237.198 122.705,237.505 120.736,237.957 115.415 C 238.215 112.370,238.522 110.189,238.762 109.698 C 239.274 108.648,239.139 98.662,238.590 96.956 C 238.298 96.050,238.293 95.660,238.565 94.754 C 238.746 94.148,239.063 92.620,239.269 91.358 C 239.474 90.096,239.737 88.895,239.853 88.688 C 240.412 87.689,246.141 81.259,248.587 78.886 C 251.291 76.262,251.706 73.634,249.734 71.625 C 249.168 71.048,248.705 70.436,248.705 70.265 C 248.705 70.095,248.246 69.665,247.686 69.312 C 246.966 68.857,246.644 68.459,246.585 67.949 C 246.523 67.405,246.343 67.206,245.855 67.138 C 244.968 67.016,244.605 66.667,244.510 65.849 C 244.451 65.334,244.264 65.132,243.782 65.066 C 242.596 64.902,242.004 63.900,242.893 63.558 C 243.469 63.337,244.560 63.987,244.560 64.552 C 244.560 64.812,244.699 65.026,244.869 65.026 C 245.253 65.026,246.628 66.318,246.643 66.694 C 246.677 67.544,251.498 69.114,251.930 68.415 C 252.390 67.670,252.376 65.847,251.906 65.377 C 251.637 65.109,251.149 64.512,250.821 64.051 C 250.492 63.590,250.017 63.212,249.763 63.212 C 249.274 63.212,248.624 62.587,248.372 61.874 C 248.288 61.637,247.900 61.287,247.509 61.097 C 247.118 60.907,246.615 60.425,246.391 60.026 C 246.168 59.627,245.695 59.159,245.342 58.985 C 244.988 58.811,244.561 58.390,244.391 58.050 C 244.221 57.710,243.724 57.281,243.285 57.096 C 242.846 56.912,242.362 56.493,242.208 56.165 C 242.054 55.838,241.559 55.335,241.108 55.047 C 240.657 54.760,240.132 54.200,239.941 53.802 C 239.751 53.405,239.327 52.978,238.999 52.853 C 238.671 52.729,238.148 52.269,237.837 51.831 C 237.220 50.966,234.938 50.658,234.249 51.347 M254.550 56.191 C 254.291 56.611,253.375 56.539,253.201 56.085 C 253.119 55.869,253.200 55.513,253.382 55.293 C 253.774 54.821,254.874 55.667,254.550 56.191 M152.202 97.596 C 151.917 97.666,151.059 98.006,150.295 98.353 C 149.531 98.699,148.089 99.155,147.089 99.365 C 146.090 99.575,144.907 99.918,144.462 100.126 C 143.434 100.607,140.598 101.450,139.249 101.677 C 138.679 101.772,137.455 102.208,136.528 102.644 C 135.602 103.081,134.553 103.518,134.197 103.616 C 132.245 104.149,132.606 108.155,134.667 108.835 C 136.000 109.275,139.126 109.005,140.188 108.358 C 140.669 108.065,142.111 107.567,143.394 107.251 C 144.676 106.934,146.062 106.503,146.473 106.292 C 147.518 105.756,150.027 104.936,150.648 104.928 C 150.933 104.924,151.865 104.571,152.720 104.145 C 153.575 103.719,154.391 103.366,154.534 103.361 C 156.300 103.298,156.621 100.108,155.099 97.733 C 154.896 97.416,153.255 97.339,152.202 97.596 M162.051 114.570 C 161.626 114.724,161.073 115.112,160.821 115.432 C 160.569 115.751,159.842 116.191,159.203 116.408 C 158.565 116.626,157.662 117.094,157.195 117.449 C 156.729 117.804,155.997 118.176,155.570 118.277 C 155.142 118.377,154.385 118.834,153.886 119.293 C 153.387 119.751,152.588 120.280,152.111 120.468 C 151.633 120.656,150.838 121.192,150.343 121.658 C 149.849 122.124,149.109 122.580,148.699 122.670 C 148.290 122.760,147.532 123.169,147.016 123.579 C 146.501 123.988,145.649 124.463,145.125 124.634 C 144.600 124.804,143.755 125.306,143.247 125.749 C 142.739 126.192,142.017 126.788,141.642 127.073 C 140.938 127.608,140.812 128.228,140.896 130.733 C 140.967 132.829,145.112 133.243,146.891 131.331 C 147.247 130.948,147.947 130.482,148.446 130.295 C 148.944 130.108,149.682 129.639,150.085 129.254 C 150.489 128.868,151.337 128.408,151.972 128.230 C 152.709 128.024,153.314 127.641,153.651 127.169 C 154.010 126.664,154.615 126.303,155.564 126.027 C 156.437 125.773,157.100 125.397,157.352 125.011 C 157.573 124.674,158.195 124.255,158.734 124.079 C 159.274 123.904,160.092 123.432,160.554 123.031 C 161.015 122.630,161.831 122.182,162.367 122.036 C 163.592 121.702,166.146 119.391,166.806 118.019 L 167.298 116.997 166.630 115.947 C 165.514 114.192,164.191 113.794,162.051 114.570 M175.130 127.720 C 174.773 127.999,174.375 128.229,174.245 128.233 C 173.857 128.242,164.563 137.761,164.380 138.336 C 164.288 138.627,163.872 139.041,163.458 139.256 C 163.043 139.471,162.535 139.971,162.330 140.368 C 162.124 140.766,161.661 141.225,161.301 141.389 C 160.941 141.553,160.463 142.042,160.239 142.476 C 160.015 142.909,159.705 143.264,159.551 143.264 C 159.131 143.264,156.505 146.106,156.061 147.041 C 155.849 147.489,155.389 147.986,155.039 148.145 C 154.690 148.304,154.404 148.592,154.404 148.783 C 154.404 149.196,153.332 150.259,152.915 150.259 C 152.388 150.259,152.088 152.261,152.449 153.368 C 152.884 154.699,154.002 155.440,155.572 155.440 L 157.005 155.440 160.368 152.077 C 162.217 150.228,163.731 148.587,163.731 148.431 C 163.731 148.153,164.921 146.796,166.451 145.331 C 166.878 144.921,167.403 144.401,167.617 144.174 C 167.830 143.948,168.280 143.504,168.615 143.189 C 168.951 142.874,169.417 142.408,169.652 142.153 C 169.886 141.898,170.352 141.432,170.688 141.117 C 171.023 140.802,171.472 140.352,171.685 140.117 C 173.312 138.321,173.739 137.816,173.986 137.396 C 174.141 137.133,174.625 136.684,175.062 136.399 C 175.499 136.114,176.054 135.553,176.295 135.152 C 176.536 134.751,176.997 134.302,177.320 134.155 C 178.746 133.505,179.338 129.637,178.174 128.573 C 176.798 127.315,175.951 127.078,175.130 127.720 M187.329 140.030 C 186.640 140.766,186.046 141.753,185.730 142.688 C 185.454 143.506,184.945 144.505,184.599 144.907 C 184.253 145.310,183.896 145.974,183.806 146.382 C 183.717 146.790,183.256 147.546,182.783 148.063 C 182.245 148.650,181.760 149.581,181.490 150.545 C 181.235 151.453,180.847 152.218,180.547 152.404 C 180.245 152.591,179.830 153.415,179.530 154.421 C 179.235 155.408,178.750 156.377,178.371 156.733 C 178.013 157.069,177.720 157.444,177.720 157.565 C 177.720 157.687,177.325 158.629,176.841 159.658 C 175.290 162.957,175.291 162.961,177.586 165.609 C 177.838 165.900,178.351 166.062,179.016 166.062 C 179.680 166.062,180.193 165.900,180.445 165.609 C 181.915 163.914,182.449 163.111,182.805 162.067 C 183.028 161.414,183.503 160.649,183.862 160.367 C 184.498 159.867,185.199 158.360,185.222 157.446 C 185.228 157.195,185.583 156.624,186.011 156.176 C 186.439 155.729,186.916 154.885,187.071 154.300 C 187.226 153.716,187.648 152.849,188.008 152.373 C 188.368 151.898,188.878 150.918,189.142 150.197 C 189.406 149.475,189.922 148.452,190.288 147.923 C 190.655 147.393,191.078 146.507,191.227 145.954 C 191.377 145.401,191.902 144.427,192.393 143.790 C 193.200 142.744,193.279 142.493,193.211 141.200 L 193.135 139.767 191.839 139.334 C 189.489 138.549,188.587 138.688,187.329 140.030 M204.019 146.833 C 202.972 147.438,202.646 147.873,202.332 149.093 C 202.185 149.663,201.782 151.004,201.436 152.073 C 201.090 153.141,200.668 154.832,200.499 155.829 C 200.329 156.826,199.791 158.867,199.302 160.363 C 197.361 166.311,197.888 170.207,200.635 170.207 C 202.777 170.207,203.809 169.212,204.263 166.710 C 204.367 166.140,204.722 165.091,205.054 164.378 C 205.413 163.606,205.828 161.881,206.082 160.104 C 206.353 158.211,206.703 156.794,207.041 156.218 C 208.537 153.668,208.608 147.534,207.153 146.571 C 206.631 146.226,204.807 146.379,204.019 146.833 M104.258 189.743 C 106.032 190.484,106.015 194.349,104.233 195.518 C 103.585 195.943,102.556 195.996,92.758 196.118 C 86.838 196.192,81.791 196.350,81.541 196.470 C 81.127 196.669,81.088 197.257,81.088 203.279 L 81.088 209.871 81.986 210.246 C 82.710 210.548,84.557 210.622,91.452 210.622 C 101.869 210.622,102.264 210.787,102.023 215.039 C 101.892 217.356,101.888 217.357,91.425 217.357 C 85.773 217.357,82.434 217.457,81.904 217.642 L 81.088 217.926 81.088 227.458 C 81.088 238.740,81.244 238.128,78.333 238.293 C 75.220 238.469,75.518 241.058,75.518 213.860 C 75.518 191.221,75.534 190.451,76.012 189.924 C 76.650 189.219,102.606 189.053,104.258 189.743 M114.523 189.964 C 115.787 190.816,115.749 190.177,115.778 211.269 L 115.804 230.699 116.386 231.348 C 117.230 232.288,118.741 232.902,120.210 232.902 C 122.115 232.902,122.820 234.341,122.175 236.911 C 121.790 238.443,116.966 238.965,114.896 237.700 C 114.326 237.351,113.569 236.937,113.213 236.779 C 112.247 236.351,111.695 235.771,111.139 234.602 C 110.864 234.023,110.373 233.220,110.047 232.818 L 109.456 232.087 109.392 211.704 C 109.324 189.860,109.295 190.385,110.627 189.711 C 111.679 189.178,113.536 189.299,114.523 189.964 M213.487 189.964 C 214.756 190.819,214.715 190.021,214.715 213.860 C 214.715 225.972,214.634 236.171,214.536 236.526 C 213.995 238.468,210.525 238.962,208.696 237.356 C 207.533 236.335,207.219 236.327,206.230 237.293 C 204.506 238.979,193.782 239.008,193.782 237.327 C 193.782 237.204,193.287 236.906,192.681 236.666 C 191.411 236.161,189.186 233.932,188.956 232.933 C 188.871 232.560,188.520 231.836,188.177 231.325 C 187.139 229.779,187.046 228.932,187.058 221.116 C 187.070 213.424,187.195 212.289,188.155 211.188 C 188.363 210.948,188.737 210.129,188.985 209.368 C 189.610 207.447,190.520 206.533,193.151 205.181 L 195.421 204.016 199.459 204.016 C 204.352 204.016,205.152 204.166,206.377 205.322 C 207.947 206.803,207.990 206.633,208.081 198.621 C 208.167 191.011,208.274 190.377,209.585 189.713 C 210.643 189.179,212.498 189.298,213.487 189.964 M226.181 189.964 C 227.445 190.816,227.407 190.181,227.435 211.214 C 227.464 233.028,227.316 231.488,229.475 232.414 C 230.101 232.682,231.099 232.905,231.692 232.910 C 233.348 232.922,234.383 234.112,234.068 235.640 C 233.996 235.986,233.881 236.547,233.811 236.886 C 233.497 238.416,228.639 238.966,226.554 237.708 C 225.984 237.364,225.024 236.849,224.421 236.563 C 223.545 236.148,223.195 235.766,222.681 234.667 C 222.327 233.910,221.771 232.961,221.446 232.559 L 220.855 231.827 220.855 211.704 C 220.855 200.636,220.946 191.252,221.058 190.852 C 221.465 189.395,224.545 188.861,226.181 189.964 M243.032 189.971 C 244.709 191.101,244.725 194.703,243.058 195.677 C 241.586 196.537,239.050 196.586,238.234 195.771 C 237.316 194.852,237.219 190.883,238.093 189.945 C 238.871 189.111,241.777 189.126,243.032 189.971 M287.273 189.665 C 288.676 190.154,288.723 190.420,288.816 198.366 C 288.912 206.533,288.942 206.665,290.441 205.581 C 292.585 204.032,294.352 203.722,299.396 204.013 L 302.704 204.204 303.508 205.081 C 303.950 205.564,304.451 205.959,304.622 205.959 C 304.961 205.959,307.772 208.586,307.772 208.902 C 307.772 209.247,308.800 211.363,309.040 211.511 C 310.066 212.146,310.201 236.547,309.184 237.564 C 308.503 238.244,306.371 238.518,305.078 238.092 C 303.213 237.476,303.256 237.755,303.088 225.012 C 302.924 212.593,302.849 211.935,301.541 211.394 C 301.149 211.231,300.555 210.805,300.220 210.447 C 299.192 209.346,298.361 209.067,296.110 209.067 C 293.591 209.067,293.447 209.137,290.950 211.546 L 288.990 213.437 288.860 225.048 C 288.718 237.770,288.745 237.565,287.147 238.092 C 285.084 238.773,282.736 237.911,282.324 236.322 C 281.903 234.693,282.205 191.070,282.642 190.544 C 283.517 189.491,285.625 189.090,287.273 189.665 M321.635 194.211 C 322.396 194.972,322.539 195.820,322.539 199.579 C 322.539 204.255,322.416 204.085,325.865 204.192 C 328.954 204.287,329.534 204.650,329.534 206.484 C 329.534 208.590,328.776 209.067,325.433 209.067 C 322.231 209.067,322.486 208.074,322.594 220.127 C 322.684 230.151,322.772 231.347,323.423 231.347 C 324.037 231.347,328.379 233.211,328.863 233.683 C 329.622 234.423,329.742 236.732,329.065 237.568 C 328.232 238.595,323.444 238.552,322.354 237.507 C 321.949 237.118,321.254 236.674,320.810 236.519 C 319.871 236.192,317.970 234.046,317.542 232.832 C 317.348 232.282,317.200 228.139,317.108 220.737 L 316.969 209.479 315.933 209.274 C 313.974 208.887,313.716 208.794,313.206 208.284 C 311.739 206.817,312.767 204.675,315.285 203.953 L 316.969 203.470 317.098 199.727 C 317.227 196.014,317.381 195.333,318.338 194.236 C 318.868 193.627,321.035 193.611,321.635 194.211 M144.097 205.280 C 147.412 206.958,149.247 208.777,149.996 211.125 C 150.289 212.043,150.704 212.988,150.917 213.224 C 152.477 214.947,152.377 227.429,150.788 229.449 C 150.497 229.819,150.259 230.271,150.259 230.454 C 150.259 232.000,147.139 235.834,145.232 236.631 C 144.699 236.854,144.067 237.272,143.828 237.559 C 142.458 239.210,133.587 238.975,131.039 237.220 C 130.280 236.697,129.548 236.269,129.413 236.269 C 128.748 236.269,126.167 233.099,125.786 231.813 C 125.567 231.076,125.156 230.226,124.873 229.925 C 123.376 228.331,123.376 214.156,124.873 212.562 C 125.156 212.261,125.575 211.380,125.805 210.606 C 126.207 209.249,128.678 206.238,129.402 206.223 C 129.543 206.220,130.285 205.787,131.050 205.260 C 132.771 204.074,133.672 203.910,138.101 203.973 L 141.616 204.024 144.097 205.280 M172.927 204.165 C 177.050 205.263,180.763 208.293,181.575 211.221 C 181.841 212.183,182.235 213.171,182.449 213.415 C 184.037 215.229,183.972 226.971,182.361 229.275 C 182.112 229.631,181.723 230.584,181.496 231.393 C 180.995 233.184,178.477 235.971,176.728 236.670 C 176.134 236.908,175.648 237.204,175.648 237.327 C 175.648 239.119,165.414 239.086,162.765 237.286 C 161.942 236.728,161.145 236.270,160.992 236.270 C 160.840 236.270,160.244 235.774,159.669 235.168 C 159.093 234.563,158.442 233.928,158.222 233.757 C 158.003 233.586,157.620 232.828,157.372 232.073 C 157.125 231.318,156.704 230.388,156.437 230.008 C 154.996 227.951,154.999 214.525,156.440 212.479 C 156.708 212.099,157.117 211.131,157.348 210.329 C 157.648 209.289,157.973 208.739,158.483 208.413 C 158.876 208.161,159.526 207.564,159.928 207.087 C 160.330 206.609,160.796 206.218,160.962 206.218 C 161.129 206.218,161.886 205.790,162.645 205.267 C 164.558 203.949,169.949 203.372,172.927 204.165 M266.386 204.487 C 266.920 204.712,267.358 205.005,267.358 205.138 C 267.358 206.103,268.670 206.217,269.557 205.330 C 271.468 203.420,275.126 203.923,275.710 206.178 C 276.257 208.288,275.813 240.988,275.221 242.228 C 274.915 242.869,274.410 244.181,274.098 245.143 C 273.787 246.104,273.326 247.037,273.073 247.215 C 272.820 247.393,272.532 247.795,272.434 248.108 C 272.191 248.877,269.509 251.295,268.900 251.295 C 268.632 251.295,268.015 251.643,267.531 252.069 C 265.560 253.799,255.936 253.918,254.178 252.234 C 253.788 251.860,253.313 251.554,253.123 251.554 C 251.654 251.554,250.167 250.090,249.725 248.208 C 249.055 245.355,254.056 244.654,256.818 247.214 C 257.859 248.178,261.459 248.474,262.885 247.711 C 264.283 246.965,265.308 246.470,266.139 246.141 C 266.537 245.984,267.062 245.505,267.305 245.077 C 267.547 244.649,267.939 244.237,268.176 244.160 C 268.837 243.947,268.963 243.380,269.096 240.026 C 269.265 235.761,269.189 235.677,266.451 237.116 L 264.378 238.205 260.447 238.209 C 256.738 238.212,256.474 238.179,255.784 237.621 C 255.381 237.296,254.465 236.755,253.747 236.418 C 252.411 235.792,250.518 233.969,250.518 233.309 C 250.518 233.107,250.116 232.414,249.624 231.770 C 247.740 229.302,247.167 214.073,248.869 211.714 C 249.148 211.327,249.700 210.253,250.096 209.326 C 250.936 207.358,251.557 206.621,252.979 205.903 C 253.549 205.615,254.190 205.229,254.404 205.045 C 255.782 203.858,263.984 203.476,266.386 204.487 M242.777 204.896 C 243.535 205.832,243.535 236.655,242.777 237.591 C 242.030 238.514,238.913 238.655,238.118 237.802 C 237.245 236.864,237.245 205.623,238.118 204.685 C 238.913 203.832,242.030 203.973,242.777 204.896 M135.262 209.348 C 134.921 209.484,134.249 209.941,133.768 210.363 C 133.288 210.785,132.571 211.298,132.175 211.502 C 131.622 211.788,131.376 212.192,131.109 213.256 C 130.917 214.016,130.478 215.351,130.133 216.223 C 129.141 218.730,129.353 223.915,130.605 227.765 L 131.505 230.529 133.304 231.741 C 135.828 233.440,139.637 233.839,141.074 232.555 C 141.352 232.306,142.188 231.642,142.930 231.079 C 144.879 229.602,145.337 227.701,145.337 221.083 C 145.337 214.200,144.971 212.997,142.196 210.756 L 140.104 209.067 137.992 209.084 C 136.831 209.093,135.602 209.212,135.262 209.348 M166.694 209.433 C 166.258 209.623,165.559 210.096,165.140 210.485 C 164.721 210.874,164.082 211.346,163.720 211.533 C 163.235 211.784,162.971 212.237,162.715 213.256 C 162.524 214.016,162.085 215.351,161.739 216.223 C 160.238 220.014,161.727 229.765,164.015 231.133 C 164.500 231.422,165.191 231.935,165.551 232.273 C 166.646 233.301,171.924 233.635,172.497 232.712 C 172.591 232.560,173.390 231.905,174.272 231.256 C 175.154 230.607,175.986 229.866,176.122 229.610 C 176.856 228.222,177.154 220.276,176.642 215.748 C 176.305 212.771,176.372 212.877,173.213 210.298 L 171.705 209.067 169.596 209.077 C 168.432 209.083,167.132 209.242,166.694 209.433 M197.756 209.569 C 197.305 209.844,196.839 210.239,196.720 210.448 C 196.600 210.657,196.088 211.071,195.581 211.368 C 194.823 211.813,194.599 212.152,194.316 213.273 C 194.128 214.024,193.691 215.351,193.346 216.223 C 191.845 220.014,193.333 229.765,195.622 231.133 C 196.106 231.422,196.812 231.950,197.191 232.306 C 198.550 233.583,202.434 233.553,203.731 232.256 C 204.088 231.898,204.540 231.606,204.736 231.606 C 205.168 231.606,206.218 230.531,206.218 230.088 C 206.218 229.913,206.504 229.483,206.853 229.134 C 207.855 228.132,208.029 226.933,208.018 221.114 C 208.008 215.592,207.802 213.438,207.264 213.259 C 207.100 213.204,206.827 212.985,206.657 212.771 C 206.486 212.558,205.625 211.637,204.742 210.725 L 203.138 209.067 200.856 209.068 C 199.061 209.069,198.401 209.176,197.756 209.569 M259.197 209.358 C 258.912 209.528,258.254 210.044,257.736 210.506 C 257.217 210.968,256.576 211.415,256.311 211.500 C 255.698 211.697,254.998 213.471,254.856 215.187 C 254.789 215.984,254.522 216.828,254.186 217.300 C 253.375 218.438,253.345 223.990,254.144 225.075 C 254.428 225.461,254.788 226.474,254.945 227.326 C 255.408 229.846,256.313 230.990,258.599 231.945 C 259.107 232.157,259.602 232.459,259.699 232.616 C 260.347 233.664,266.614 231.611,267.224 230.151 C 267.410 229.706,267.808 229.170,268.109 228.959 C 269.564 227.940,269.625 213.559,268.176 213.094 C 267.939 213.019,267.513 212.525,267.228 211.997 C 266.095 209.897,261.067 208.245,259.197 209.358 " stroke="none" fill="#fbfbfb" fill-rule="evenodd"></path><path id="path2" d="M76.012 189.924 C 75.534 190.451,75.518 191.221,75.518 213.860 C 75.518 241.058,75.220 238.469,78.333 238.293 C 81.244 238.128,81.088 238.740,81.088 227.458 L 81.088 217.926 81.904 217.642 C 82.434 217.457,85.773 217.357,91.425 217.357 C 101.888 217.357,101.892 217.356,102.023 215.039 C 102.264 210.787,101.869 210.622,91.452 210.622 C 84.557 210.622,82.710 210.548,81.986 210.246 L 81.088 209.871 81.088 203.279 C 81.088 197.257,81.127 196.669,81.541 196.470 C 81.791 196.350,86.838 196.192,92.758 196.118 C 105.636 195.958,105.517 195.992,105.505 192.464 C 105.495 189.247,106.157 189.378,89.945 189.378 C 76.611 189.378,76.501 189.383,76.012 189.924 M110.627 189.711 C 109.295 190.385,109.324 189.860,109.392 211.704 L 109.456 232.087 110.047 232.818 C 110.373 233.220,110.864 234.023,111.139 234.602 C 111.695 235.771,112.247 236.351,113.213 236.779 C 113.569 236.937,114.326 237.351,114.896 237.700 C 116.966 238.965,121.790 238.443,122.175 236.911 C 122.820 234.341,122.115 232.902,120.210 232.902 C 118.741 232.902,117.230 232.288,116.386 231.348 L 115.804 230.699 115.778 211.269 C 115.763 200.583,115.671 191.549,115.572 191.195 C 115.158 189.707,112.319 188.855,110.627 189.711 M209.585 189.713 C 208.274 190.377,208.167 191.011,208.081 198.621 C 207.990 206.633,207.947 206.803,206.377 205.322 C 205.152 204.166,204.352 204.016,199.459 204.016 L 195.421 204.016 193.151 205.181 C 190.520 206.533,189.610 207.447,188.985 209.368 C 188.737 210.129,188.363 210.948,188.155 211.188 C 187.195 212.289,187.070 213.424,187.058 221.116 C 187.046 228.932,187.139 229.779,188.177 231.325 C 188.520 231.836,188.871 232.560,188.956 232.933 C 189.186 233.932,191.411 236.161,192.681 236.666 C 193.287 236.906,193.782 237.204,193.782 237.327 C 193.782 239.008,204.506 238.979,206.230 237.293 C 207.219 236.327,207.533 236.335,208.696 237.356 C 210.525 238.962,213.995 238.468,214.536 236.526 C 214.634 236.171,214.715 225.972,214.715 213.860 C 214.715 201.749,214.634 191.549,214.536 191.195 C 214.121 189.704,211.282 188.855,209.585 189.713 M222.095 189.761 C 220.841 190.306,220.855 190.053,220.855 211.704 L 220.855 231.827 221.446 232.559 C 221.771 232.961,222.327 233.910,222.681 234.667 C 223.195 235.766,223.545 236.148,224.421 236.563 C 225.024 236.849,225.984 237.364,226.554 237.708 C 228.639 238.966,233.497 238.416,233.811 236.886 C 233.881 236.547,233.996 235.986,234.068 235.640 C 234.383 234.112,233.348 232.922,231.692 232.910 C 231.099 232.905,230.101 232.682,229.475 232.414 C 227.316 231.488,227.464 233.028,227.435 211.214 C 227.421 200.558,227.329 191.549,227.230 191.195 C 226.801 189.652,224.087 188.894,222.095 189.761 M238.093 189.945 C 237.219 190.883,237.316 194.852,238.234 195.771 C 239.050 196.586,241.586 196.537,243.058 195.677 C 244.725 194.703,244.709 191.101,243.032 189.971 C 241.777 189.126,238.871 189.111,238.093 189.945 M283.808 189.737 C 282.150 190.460,282.261 188.863,282.184 213.259 C 282.101 239.250,281.949 237.922,285.043 238.271 C 288.737 238.687,288.707 238.791,288.860 225.048 L 288.990 213.437 290.950 211.546 C 293.447 209.137,293.591 209.067,296.110 209.067 C 298.361 209.067,299.192 209.346,300.220 210.447 C 300.555 210.805,301.149 211.231,301.541 211.394 C 302.849 211.935,302.924 212.593,303.088 225.012 C 303.256 237.755,303.213 237.476,305.078 238.092 C 306.371 238.518,308.503 238.244,309.184 237.564 C 310.201 236.547,310.066 212.146,309.040 211.511 C 308.800 211.363,307.772 209.247,307.772 208.902 C 307.772 208.586,304.961 205.959,304.622 205.959 C 304.451 205.959,303.950 205.564,303.508 205.081 L 302.704 204.204 299.396 204.013 C 294.352 203.722,292.585 204.032,290.441 205.581 C 288.942 206.665,288.912 206.533,288.816 198.366 C 288.756 193.204,288.637 190.899,288.412 190.507 C 287.811 189.457,285.382 189.051,283.808 189.737 M103.732 190.997 C 105.024 192.152,104.889 193.061,103.288 193.988 C 102.315 194.552,102.165 194.560,91.559 194.560 L 80.816 194.560 80.499 195.272 C 80.272 195.780,80.181 198.101,80.181 203.368 C 80.181 208.635,80.272 210.956,80.499 211.464 L 80.816 212.176 90.512 212.176 L 100.208 212.176 100.717 212.980 C 101.253 213.827,101.073 215.675,100.411 216.123 C 100.256 216.228,95.863 216.315,90.649 216.317 C 81.345 216.321,81.159 216.331,80.675 216.866 C 80.214 217.375,80.173 218.035,80.052 226.930 C 79.904 237.802,79.993 237.377,77.883 237.253 C 76.587 237.177,76.573 237.167,76.364 236.152 C 76.091 234.833,76.227 191.168,76.505 190.738 C 76.668 190.486,79.636 190.415,89.897 190.415 L 103.080 190.415 103.732 190.997 M113.733 191.256 C 114.233 192.076,114.247 192.619,114.252 211.399 L 114.256 230.699 115.639 232.189 C 116.744 233.379,117.182 233.679,117.817 233.679 C 120.456 233.679,121.770 234.495,121.266 235.820 C 120.152 238.752,113.212 237.099,111.735 233.549 C 111.379 232.694,110.925 231.811,110.725 231.586 C 110.421 231.243,110.363 228.002,110.363 211.553 L 110.363 191.929 111.120 191.172 C 112.155 190.137,113.069 190.167,113.733 191.256 M212.697 191.256 C 213.501 192.575,213.501 235.145,212.697 236.464 C 212.042 237.539,211.268 237.557,209.974 236.528 C 208.679 235.499,207.138 235.466,205.489 236.433 C 202.361 238.266,195.807 238.338,194.703 236.551 C 194.620 236.417,194.117 236.167,193.584 235.995 C 192.105 235.519,189.969 233.241,189.491 231.630 C 189.274 230.900,188.882 229.925,188.620 229.464 C 187.367 227.264,187.385 215.190,188.644 212.982 C 188.919 212.498,189.311 211.465,189.514 210.684 C 189.718 209.903,190.033 209.080,190.214 208.855 C 191.085 207.773,192.417 206.714,193.250 206.442 C 193.756 206.277,194.785 205.796,195.537 205.374 C 197.932 204.029,203.090 204.499,205.917 206.320 C 208.930 208.262,209.326 207.355,209.326 198.517 L 209.326 191.929 210.084 191.172 C 211.118 190.137,212.033 190.167,212.697 191.256 M225.391 191.256 C 225.891 192.076,225.905 192.615,225.906 211.355 L 225.907 230.611 227.209 232.109 C 228.457 233.543,228.576 233.613,230.022 233.764 C 233.044 234.080,233.723 234.970,232.144 236.548 C 231.002 237.691,228.946 237.636,226.572 236.399 C 225.616 235.900,224.664 235.492,224.457 235.492 C 224.250 235.492,223.962 235.172,223.818 234.780 C 223.673 234.388,223.149 233.273,222.653 232.303 L 221.752 230.538 221.822 211.101 L 221.891 191.665 222.618 191.040 C 223.685 190.122,224.751 190.206,225.391 191.256 M242.231 191.256 C 243.511 193.356,242.350 195.324,239.825 195.333 C 238.432 195.338,237.671 192.671,238.580 190.971 C 239.114 189.975,241.566 190.166,242.231 191.256 M286.967 191.039 L 287.694 191.664 287.824 198.902 C 287.987 208.044,287.962 207.999,291.867 206.016 C 294.902 204.474,301.778 204.302,302.801 205.742 C 302.987 206.005,303.480 206.396,303.895 206.611 C 306.193 207.799,307.264 209.530,307.892 213.070 C 307.992 213.632,308.239 214.329,308.441 214.617 C 308.743 215.048,308.808 216.975,308.808 225.466 L 308.808 235.791 308.051 236.548 C 306.865 237.735,305.812 237.609,305.174 236.205 C 304.710 235.182,304.674 234.427,304.669 225.562 L 304.663 216.021 303.879 213.775 C 301.767 207.730,294.155 206.059,290.046 210.740 C 287.878 213.209,287.987 212.510,287.832 224.958 L 287.694 236.056 286.967 236.681 C 285.779 237.702,284.793 237.533,284.190 236.205 C 283.411 234.490,283.411 193.231,284.190 191.516 C 284.793 190.187,285.779 190.018,286.967 191.039 M318.338 194.236 C 317.381 195.333,317.227 196.014,317.098 199.727 L 316.969 203.470 315.285 203.953 C 312.767 204.675,311.739 206.817,313.206 208.284 C 313.716 208.794,313.974 208.887,315.933 209.274 L 316.969 209.479 317.108 220.737 C 317.200 228.139,317.348 232.282,317.542 232.832 C 317.970 234.046,319.871 236.192,320.810 236.519 C 321.254 236.674,321.949 237.118,322.354 237.507 C 323.444 238.552,328.232 238.595,329.065 237.568 C 329.742 236.732,329.622 234.423,328.863 233.683 C 328.379 233.211,324.037 231.347,323.423 231.347 C 322.772 231.347,322.684 230.151,322.594 220.127 C 322.486 208.074,322.231 209.067,325.433 209.067 C 328.776 209.067,329.534 208.590,329.534 206.484 C 329.534 204.650,328.954 204.287,325.865 204.192 C 322.416 204.085,322.539 204.255,322.539 199.579 C 322.539 195.820,322.396 194.972,321.635 194.211 C 321.035 193.611,318.868 193.627,318.338 194.236 M321.603 196.218 C 321.921 196.888,322.021 197.903,322.021 200.458 C 322.021 204.992,322.156 205.181,325.376 205.181 C 327.897 205.181,328.090 205.284,328.369 206.778 C 328.606 208.046,328.117 208.290,325.334 208.290 C 323.797 208.290,323.006 208.407,322.597 208.693 L 322.021 209.097 322.021 220.127 L 322.021 231.156 322.902 231.987 C 324.028 233.050,325.359 233.679,326.480 233.679 C 328.222 233.679,329.063 235.604,327.924 236.982 C 327.453 237.553,324.747 237.382,323.372 236.695 C 322.700 236.359,321.856 236.014,321.495 235.927 C 320.380 235.660,318.425 233.135,318.130 231.583 C 317.990 230.841,317.876 225.509,317.876 219.663 C 317.876 207.736,318.070 208.766,315.750 208.418 C 312.791 207.974,313.219 204.940,316.242 204.926 C 317.640 204.920,317.876 204.272,317.876 200.426 C 317.876 196.214,318.254 195.337,320.069 195.337 C 321.083 195.337,321.223 195.417,321.603 196.218 M133.513 204.112 C 132.923 204.217,131.814 204.733,131.050 205.260 C 130.285 205.787,129.543 206.220,129.402 206.223 C 128.678 206.238,126.207 209.249,125.805 210.606 C 125.575 211.380,125.156 212.261,124.873 212.562 C 123.376 214.156,123.376 228.331,124.873 229.925 C 125.156 230.226,125.567 231.076,125.786 231.813 C 126.167 233.099,128.748 236.269,129.413 236.269 C 129.548 236.269,130.280 236.697,131.039 237.220 C 133.587 238.975,142.458 239.210,143.828 237.559 C 144.067 237.272,144.699 236.854,145.232 236.631 C 147.139 235.834,150.259 232.000,150.259 230.454 C 150.259 230.271,150.497 229.819,150.788 229.449 C 152.377 227.429,152.477 214.947,150.917 213.224 C 150.704 212.988,150.289 212.043,149.996 211.125 C 149.247 208.777,147.412 206.958,144.097 205.280 L 141.616 204.024 138.101 203.973 C 136.167 203.946,134.103 204.008,133.513 204.112 M164.979 204.131 C 164.454 204.233,163.404 204.745,162.645 205.267 C 161.886 205.790,161.129 206.218,160.962 206.218 C 160.796 206.218,160.330 206.609,159.928 207.087 C 159.526 207.564,158.876 208.161,158.483 208.413 C 157.973 208.739,157.648 209.289,157.348 210.329 C 157.117 211.131,156.708 212.099,156.440 212.479 C 154.999 214.525,154.996 227.951,156.437 230.008 C 156.704 230.388,157.125 231.318,157.372 232.073 C 157.620 232.828,158.003 233.586,158.222 233.757 C 158.442 233.928,159.093 234.563,159.669 235.168 C 160.244 235.774,160.840 236.270,160.992 236.270 C 161.145 236.270,161.942 236.728,162.765 237.286 C 165.414 239.086,175.648 239.119,175.648 237.327 C 175.648 237.204,176.134 236.908,176.728 236.670 C 178.477 235.971,180.995 233.184,181.496 231.393 C 181.723 230.584,182.112 229.631,182.361 229.275 C 183.972 226.971,184.037 215.229,182.449 213.415 C 182.235 213.171,181.841 212.183,181.575 211.221 C 180.145 206.068,172.285 202.709,164.979 204.131 M256.088 204.298 C 255.376 204.525,254.618 204.861,254.404 205.045 C 254.190 205.229,253.549 205.615,252.979 205.903 C 251.557 206.621,250.936 207.358,250.096 209.326 C 249.700 210.253,249.148 211.327,248.869 211.714 C 247.167 214.073,247.740 229.302,249.624 231.770 C 250.116 232.414,250.518 233.107,250.518 233.309 C 250.518 233.969,252.411 235.792,253.747 236.418 C 254.465 236.755,255.381 237.296,255.784 237.621 C 256.474 238.179,256.738 238.212,260.447 238.209 L 264.378 238.205 266.451 237.116 C 269.189 235.677,269.265 235.761,269.096 240.026 C 268.963 243.380,268.837 243.947,268.176 244.160 C 267.939 244.237,267.547 244.649,267.305 245.077 C 267.062 245.505,266.537 245.984,266.139 246.141 C 265.308 246.470,264.283 246.965,262.885 247.711 C 261.459 248.474,257.859 248.178,256.818 247.214 C 254.056 244.654,249.055 245.355,249.725 248.208 C 250.167 250.090,251.654 251.554,253.123 251.554 C 253.313 251.554,253.788 251.860,254.178 252.234 C 255.936 253.918,265.560 253.799,267.531 252.069 C 268.015 251.643,268.632 251.295,268.900 251.295 C 269.509 251.295,272.191 248.877,272.434 248.108 C 272.532 247.795,272.820 247.393,273.073 247.215 C 273.326 247.037,273.787 246.104,274.098 245.143 C 274.410 244.181,274.915 242.869,275.221 242.228 C 275.813 240.988,276.257 208.288,275.710 206.178 C 275.126 203.923,271.468 203.420,269.557 205.330 C 268.670 206.217,267.358 206.103,267.358 205.138 C 267.358 204.088,258.763 203.447,256.088 204.298 M238.118 204.685 C 237.245 205.623,237.245 236.864,238.118 237.802 C 238.913 238.655,242.030 238.514,242.777 237.591 C 243.535 236.655,243.535 205.832,242.777 204.896 C 242.030 203.973,238.913 203.832,238.118 204.685 M141.636 205.387 C 142.094 205.714,143.054 206.155,143.768 206.367 C 146.325 207.126,148.811 209.998,149.470 212.953 C 149.645 213.737,150.068 215.185,150.412 216.171 C 151.320 218.778,151.320 223.709,150.412 226.316 C 150.068 227.302,149.645 228.750,149.471 229.534 C 148.949 231.881,146.538 234.879,144.246 236.029 C 143.635 236.336,142.863 236.836,142.532 237.140 C 141.973 237.652,141.647 237.693,138.127 237.694 L 134.326 237.694 131.786 236.415 C 130.117 235.574,129.102 234.892,128.828 234.427 C 128.598 234.038,128.137 233.573,127.804 233.395 C 127.354 233.154,127.006 232.468,126.448 230.719 C 126.035 229.426,125.430 227.727,125.103 226.943 C 124.209 224.797,124.213 217.673,125.110 215.544 C 125.440 214.760,126.005 213.132,126.367 211.926 C 127.299 208.811,130.333 206.143,134.324 204.926 C 135.952 204.430,140.715 204.730,141.636 205.387 M173.102 205.346 C 173.433 205.651,174.370 206.090,175.184 206.322 C 178.168 207.174,180.431 209.912,181.201 213.601 C 181.439 214.741,181.803 216.056,182.009 216.524 C 182.529 217.706,182.534 224.462,182.015 225.837 C 181.812 226.374,181.449 227.746,181.209 228.886 C 180.570 231.909,178.845 234.242,176.036 235.881 C 175.303 236.308,174.367 236.891,173.957 237.176 C 173.296 237.635,172.788 237.694,169.546 237.694 L 165.883 237.694 163.359 236.400 C 161.752 235.576,160.686 234.854,160.425 234.413 C 160.200 234.031,159.762 233.584,159.452 233.418 C 158.845 233.093,158.229 231.881,157.653 229.880 C 157.454 229.191,157.031 227.927,156.713 227.073 C 155.539 223.922,155.729 217.806,157.114 214.133 C 157.440 213.270,157.907 211.934,158.153 211.163 C 158.877 208.894,163.223 205.438,166.108 204.838 C 167.920 204.461,172.500 204.794,173.102 205.346 M265.155 205.358 C 265.868 205.640,266.900 206.179,267.448 206.556 C 268.556 207.316,268.749 207.275,270.884 205.826 C 272.374 204.815,273.236 204.948,273.841 206.282 C 274.317 207.330,274.341 208.137,274.348 223.057 C 274.357 241.432,274.119 244.280,272.409 246.269 C 272.053 246.682,271.762 247.167,271.762 247.345 C 271.761 248.464,267.048 251.424,264.000 252.221 C 261.105 252.978,256.159 252.594,255.020 251.525 C 254.661 251.188,253.706 250.678,252.896 250.391 C 251.538 249.911,251.398 249.785,251.072 248.757 C 250.336 246.430,252.779 245.783,255.420 247.604 L 256.830 248.575 260.040 248.661 L 263.250 248.748 265.168 247.800 C 267.973 246.414,269.565 244.460,269.863 242.036 C 270.323 238.292,270.157 235.842,269.391 235.077 L 268.705 234.390 267.707 235.176 C 267.159 235.608,266.315 236.043,265.833 236.143 C 265.351 236.244,264.477 236.544,263.890 236.810 C 262.689 237.356,257.426 237.535,257.121 237.041 C 257.030 236.895,256.212 236.438,255.301 236.025 C 252.650 234.823,250.912 232.627,250.061 229.404 C 249.911 228.834,249.578 227.843,249.321 227.202 C 248.422 224.954,248.759 213.923,249.760 212.821 C 250.021 212.534,250.411 211.617,250.629 210.782 C 250.846 209.948,251.172 209.080,251.354 208.854 C 252.198 207.804,253.731 206.475,254.112 206.464 C 254.344 206.457,254.942 206.229,255.440 205.956 C 257.875 204.626,257.779 204.648,260.881 204.748 C 263.066 204.818,264.206 204.981,265.155 205.358 M241.743 205.610 C 242.035 205.962,242.098 208.737,242.098 221.244 C 242.098 238.363,242.228 237.306,240.133 237.306 C 238.113 237.306,238.212 238.140,238.212 221.244 C 238.212 209.584,238.285 206.220,238.545 205.764 C 238.970 205.022,241.167 204.915,241.743 205.610 M134.932 208.535 C 133.018 208.907,130.840 210.931,130.177 212.953 C 129.920 213.737,129.466 214.709,129.168 215.113 C 128.336 216.241,128.336 226.247,129.168 227.375 C 129.466 227.779,129.920 228.743,130.177 229.518 C 130.626 230.873,130.908 231.243,132.544 232.625 C 133.723 233.621,134.901 233.914,137.767 233.926 C 142.676 233.947,145.129 232.012,145.825 227.568 C 145.960 226.701,146.256 225.550,146.481 225.011 C 147.029 223.701,147.058 218.432,146.524 217.398 C 146.322 217.008,146.025 215.935,145.863 215.015 C 145.374 212.218,145.137 211.754,143.440 210.267 C 141.282 208.376,138.575 207.825,134.932 208.535 M166.384 208.564 C 164.325 208.970,161.399 212.243,161.399 214.139 C 161.399 214.211,161.137 214.625,160.816 215.058 C 159.945 216.237,159.912 226.205,160.775 227.375 C 161.072 227.779,161.528 228.750,161.787 229.534 C 162.046 230.317,162.560 231.219,162.930 231.537 C 163.299 231.855,164.002 232.463,164.491 232.888 C 165.999 234.198,171.996 234.421,173.492 233.223 C 173.894 232.901,174.657 232.348,175.188 231.993 C 176.547 231.085,176.927 230.382,177.342 228.007 C 177.542 226.862,177.884 225.499,178.101 224.978 C 178.635 223.700,178.655 218.414,178.130 217.398 C 177.928 217.008,177.631 215.935,177.470 215.015 C 176.983 212.233,176.744 211.761,175.104 210.340 C 172.824 208.365,170.153 207.821,166.384 208.564 M197.668 208.587 C 196.184 208.984,193.942 211.273,193.390 212.953 C 193.133 213.737,192.679 214.709,192.381 215.113 C 191.539 216.254,191.550 226.249,192.393 227.390 C 192.698 227.802,193.161 228.816,193.422 229.644 C 193.777 230.772,194.125 231.317,194.811 231.824 C 195.314 232.195,195.989 232.750,196.312 233.057 C 197.630 234.312,204.663 234.232,204.663 232.963 C 204.663 232.839,205.066 232.546,205.558 232.312 C 206.051 232.077,206.649 231.502,206.890 231.033 C 207.130 230.565,207.397 230.123,207.484 230.052 C 209.132 228.702,209.741 222.118,208.864 215.122 C 208.661 213.500,208.665 213.507,206.303 210.862 C 205.399 209.851,204.318 208.901,203.709 208.584 C 203.040 208.237,198.968 208.238,197.668 208.587 M258.679 208.655 C 256.553 209.333,253.566 212.936,253.248 215.206 C 253.152 215.891,253.015 218.381,252.945 220.740 L 252.817 225.030 253.777 227.605 C 254.934 230.710,254.918 230.686,256.865 232.273 L 258.420 233.540 261.178 233.637 L 263.936 233.734 265.644 232.779 C 266.583 232.254,267.612 231.454,267.930 231.003 C 268.249 230.551,268.715 229.957,268.966 229.683 C 269.218 229.408,269.474 228.825,269.536 228.387 C 269.598 227.949,269.775 226.819,269.928 225.877 C 270.647 221.466,270.077 213.945,268.922 212.595 C 268.542 212.151,267.923 211.250,267.545 210.593 C 266.400 208.599,261.924 207.620,258.679 208.655 M142.196 210.756 C 144.971 212.997,145.337 214.200,145.337 221.083 C 145.337 227.701,144.879 229.602,142.930 231.079 C 142.188 231.642,141.352 232.306,141.074 232.555 C 139.637 233.839,135.828 233.440,133.304 231.741 L 131.505 230.529 130.605 227.765 C 129.353 223.915,129.141 218.730,130.133 216.223 C 130.478 215.351,130.917 214.016,131.109 213.256 C 131.376 212.192,131.622 211.788,132.175 211.502 C 132.571 211.298,133.288 210.785,133.768 210.363 C 134.999 209.283,135.594 209.102,137.992 209.084 L 140.104 209.067 142.196 210.756 M173.213 210.298 C 176.372 212.877,176.305 212.771,176.642 215.748 C 177.154 220.276,176.856 228.222,176.122 229.610 C 175.986 229.866,175.154 230.607,174.272 231.256 C 173.390 231.905,172.591 232.560,172.497 232.712 C 171.924 233.635,166.646 233.301,165.551 232.273 C 165.191 231.935,164.500 231.422,164.015 231.133 C 161.727 229.765,160.238 220.014,161.739 216.223 C 162.085 215.351,162.524 214.016,162.715 213.256 C 162.971 212.237,163.235 211.784,163.720 211.533 C 164.082 211.346,164.721 210.874,165.140 210.485 C 166.308 209.401,167.296 209.089,169.596 209.077 L 171.705 209.067 173.213 210.298 M204.742 210.725 C 205.625 211.637,206.486 212.558,206.657 212.771 C 206.827 212.985,207.100 213.204,207.264 213.259 C 207.802 213.438,208.008 215.592,208.018 221.114 C 208.029 226.933,207.855 228.132,206.853 229.134 C 206.504 229.483,206.218 229.913,206.218 230.088 C 206.218 230.531,205.168 231.606,204.736 231.606 C 204.540 231.606,204.088 231.898,203.731 232.256 C 202.434 233.553,198.550 233.583,197.191 232.306 C 196.812 231.950,196.106 231.422,195.622 231.133 C 193.333 229.765,191.845 220.014,193.346 216.223 C 193.691 215.351,194.128 214.024,194.316 213.273 C 194.599 212.152,194.823 211.813,195.581 211.368 C 196.088 211.071,196.600 210.657,196.720 210.448 C 197.269 209.487,198.523 209.069,200.856 209.068 L 203.138 209.067 204.742 210.725 M265.161 210.135 C 266.196 210.738,266.882 211.355,267.228 211.997 C 267.513 212.525,267.939 213.019,268.176 213.094 C 269.625 213.559,269.564 227.940,268.109 228.959 C 267.808 229.170,267.410 229.706,267.224 230.151 C 266.614 231.611,260.347 233.664,259.699 232.616 C 259.602 232.459,259.107 232.157,258.599 231.945 C 256.313 230.990,255.408 229.846,254.945 227.326 C 254.788 226.474,254.428 225.461,254.144 225.075 C 253.345 223.990,253.375 218.438,254.186 217.300 C 254.522 216.828,254.789 215.984,254.856 215.187 C 254.998 213.471,255.698 211.697,256.311 211.500 C 256.576 211.415,257.217 210.968,257.736 210.506 C 259.262 209.147,259.563 209.042,261.663 209.142 C 263.325 209.220,263.840 209.367,265.161 210.135 " stroke="none" fill="#acacac" fill-rule="evenodd"></path><path id="path3" d="M76.505 190.738 C 76.227 191.168,76.091 234.833,76.364 236.152 C 76.573 237.167,76.587 237.177,77.883 237.253 C 79.993 237.377,79.904 237.802,80.052 226.930 C 80.173 218.035,80.214 217.375,80.675 216.866 C 81.159 216.331,81.345 216.321,90.649 216.317 C 95.863 216.315,100.256 216.228,100.411 216.123 C 101.073 215.675,101.253 213.827,100.717 212.980 L 100.208 212.176 90.512 212.176 L 80.816 212.176 80.499 211.464 C 80.272 210.956,80.181 208.635,80.181 203.368 C 80.181 198.101,80.272 195.780,80.499 195.272 L 80.816 194.560 91.559 194.560 C 102.165 194.560,102.315 194.552,103.288 193.988 C 104.889 193.061,105.024 192.152,103.732 190.997 L 103.080 190.415 89.897 190.415 C 79.636 190.415,76.668 190.486,76.505 190.738 M111.120 191.172 L 110.363 191.929 110.363 211.553 C 110.363 228.002,110.421 231.243,110.725 231.586 C 110.925 231.811,111.379 232.694,111.735 233.549 C 113.212 237.099,120.152 238.752,121.266 235.820 C 121.770 234.495,120.456 233.679,117.817 233.679 C 117.182 233.679,116.744 233.379,115.639 232.189 L 114.256 230.699 114.252 211.399 C 114.247 192.619,114.233 192.076,113.733 191.256 C 113.069 190.167,112.155 190.137,111.120 191.172 M210.084 191.172 L 209.326 191.929 209.326 198.517 C 209.326 207.355,208.930 208.262,205.917 206.320 C 203.090 204.499,197.932 204.029,195.537 205.374 C 194.785 205.796,193.756 206.277,193.250 206.442 C 192.417 206.714,191.085 207.773,190.214 208.855 C 190.033 209.080,189.718 209.903,189.514 210.684 C 189.311 211.465,188.919 212.498,188.644 212.982 C 187.385 215.190,187.367 227.264,188.620 229.464 C 188.882 229.925,189.274 230.900,189.491 231.630 C 189.969 233.241,192.105 235.519,193.584 235.995 C 194.117 236.167,194.620 236.417,194.703 236.551 C 195.807 238.338,202.361 238.266,205.489 236.433 C 207.138 235.466,208.679 235.499,209.974 236.528 C 211.268 237.557,212.042 237.539,212.697 236.464 C 213.501 235.145,213.501 192.575,212.697 191.256 C 212.033 190.167,211.118 190.137,210.084 191.172 M222.618 191.040 L 221.891 191.665 221.822 211.101 L 221.752 230.538 222.653 232.303 C 223.149 233.273,223.673 234.388,223.818 234.780 C 223.962 235.172,224.250 235.492,224.457 235.492 C 224.664 235.492,225.616 235.900,226.572 236.399 C 228.946 237.636,231.002 237.691,232.144 236.548 C 233.723 234.970,233.044 234.080,230.022 233.764 C 228.576 233.613,228.457 233.543,227.209 232.109 L 225.907 230.611 225.906 211.355 C 225.905 192.615,225.891 192.076,225.391 191.256 C 224.751 190.206,223.685 190.122,222.618 191.040 M238.580 190.971 C 237.671 192.671,238.432 195.338,239.825 195.333 C 242.350 195.324,243.511 193.356,242.231 191.256 C 241.566 190.166,239.114 189.975,238.580 190.971 M284.190 191.516 C 283.411 193.231,283.411 234.490,284.190 236.205 C 284.793 237.533,285.779 237.702,286.967 236.681 L 287.694 236.056 287.832 224.958 C 287.987 212.510,287.878 213.209,290.046 210.740 C 294.155 206.059,301.767 207.730,303.879 213.775 L 304.663 216.021 304.669 225.562 C 304.674 234.427,304.710 235.182,305.174 236.205 C 305.812 237.609,306.865 237.735,308.051 236.548 L 308.808 235.791 308.808 225.466 C 308.808 216.975,308.743 215.048,308.441 214.617 C 308.239 214.329,307.992 213.632,307.892 213.070 C 307.264 209.530,306.193 207.799,303.895 206.611 C 303.480 206.396,302.987 206.005,302.801 205.742 C 301.778 204.302,294.902 204.474,291.867 206.016 C 287.962 207.999,287.987 208.044,287.824 198.902 L 287.694 191.664 286.967 191.039 C 285.779 190.018,284.793 190.187,284.190 191.516 M318.415 196.209 C 317.942 196.975,317.876 197.490,317.876 200.426 C 317.876 204.272,317.640 204.920,316.242 204.926 C 313.219 204.940,312.791 207.974,315.750 208.418 C 318.070 208.766,317.876 207.736,317.876 219.663 C 317.876 225.509,317.990 230.841,318.130 231.583 C 318.425 233.135,320.380 235.660,321.495 235.927 C 321.856 236.014,322.700 236.359,323.372 236.695 C 324.747 237.382,327.453 237.553,327.924 236.982 C 329.063 235.604,328.222 233.679,326.480 233.679 C 325.359 233.679,324.028 233.050,322.902 231.987 L 322.021 231.156 322.021 220.127 L 322.021 209.097 322.597 208.693 C 323.006 208.407,323.797 208.290,325.334 208.290 C 328.117 208.290,328.606 208.046,328.369 206.778 C 328.090 205.284,327.897 205.181,325.376 205.181 C 322.156 205.181,322.021 204.992,322.021 200.458 C 322.021 196.126,321.720 195.337,320.069 195.337 C 319.083 195.337,318.892 195.437,318.415 196.209 M134.324 204.926 C 130.333 206.143,127.299 208.811,126.367 211.926 C 126.005 213.132,125.440 214.760,125.110 215.544 C 124.213 217.673,124.209 224.797,125.103 226.943 C 125.430 227.727,126.035 229.426,126.448 230.719 C 127.006 232.468,127.354 233.154,127.804 233.395 C 128.137 233.573,128.598 234.038,128.828 234.427 C 129.102 234.892,130.117 235.574,131.786 236.415 L 134.326 237.694 138.127 237.694 C 141.647 237.693,141.973 237.652,142.532 237.140 C 142.863 236.836,143.635 236.336,144.246 236.029 C 146.538 234.879,148.949 231.881,149.471 229.534 C 149.645 228.750,150.068 227.302,150.412 226.316 C 151.320 223.709,151.320 218.778,150.412 216.171 C 150.068 215.185,149.645 213.737,149.470 212.953 C 148.811 209.998,146.325 207.126,143.768 206.367 C 143.054 206.155,142.094 205.714,141.636 205.387 C 140.715 204.730,135.952 204.430,134.324 204.926 M166.108 204.838 C 163.223 205.438,158.877 208.894,158.153 211.163 C 157.907 211.934,157.440 213.270,157.114 214.133 C 155.729 217.806,155.539 223.922,156.713 227.073 C 157.031 227.927,157.454 229.191,157.653 229.880 C 158.229 231.881,158.845 233.093,159.452 233.418 C 159.762 233.584,160.200 234.031,160.425 234.413 C 160.686 234.854,161.752 235.576,163.359 236.400 L 165.883 237.694 169.546 237.694 C 172.788 237.694,173.296 237.635,173.957 237.176 C 174.367 236.891,175.303 236.308,176.036 235.881 C 178.845 234.242,180.570 231.909,181.209 228.886 C 181.449 227.746,181.812 226.374,182.015 225.837 C 182.534 224.462,182.529 217.706,182.009 216.524 C 181.803 216.056,181.439 214.741,181.201 213.601 C 180.431 209.912,178.168 207.174,175.184 206.322 C 174.370 206.090,173.433 205.651,173.102 205.346 C 172.500 204.794,167.920 204.461,166.108 204.838 M257.124 205.056 C 256.697 205.279,255.939 205.684,255.440 205.956 C 254.942 206.229,254.344 206.457,254.112 206.464 C 253.731 206.475,252.198 207.804,251.354 208.854 C 251.172 209.080,250.846 209.948,250.629 210.782 C 250.411 211.617,250.021 212.534,249.760 212.821 C 248.759 213.923,248.422 224.954,249.321 227.202 C 249.578 227.843,249.911 228.834,250.061 229.404 C 250.912 232.627,252.650 234.823,255.301 236.025 C 256.212 236.438,257.030 236.895,257.121 237.041 C 257.426 237.535,262.689 237.356,263.890 236.810 C 264.477 236.544,265.351 236.244,265.833 236.143 C 266.315 236.043,267.159 235.608,267.707 235.176 L 268.705 234.390 269.391 235.077 C 270.157 235.842,270.323 238.292,269.863 242.036 C 269.565 244.460,267.973 246.414,265.168 247.800 L 263.250 248.748 260.040 248.661 L 256.830 248.575 255.420 247.604 C 252.779 245.783,250.336 246.430,251.072 248.757 C 251.398 249.785,251.538 249.911,252.896 250.391 C 253.706 250.678,254.661 251.188,255.020 251.525 C 256.159 252.594,261.105 252.978,264.000 252.221 C 267.048 251.424,271.761 248.464,271.762 247.345 C 271.762 247.167,272.053 246.682,272.409 246.269 C 274.119 244.280,274.357 241.432,274.348 223.057 C 274.341 208.137,274.317 207.330,273.841 206.282 C 273.236 204.948,272.374 204.815,270.884 205.826 C 268.749 207.275,268.556 207.316,267.448 206.556 C 264.983 204.864,259.127 204.013,257.124 205.056 M238.545 205.764 C 238.285 206.220,238.212 209.584,238.212 221.244 C 238.212 238.140,238.113 237.306,240.133 237.306 C 242.228 237.306,242.098 238.363,242.098 221.244 C 242.098 208.737,242.035 205.962,241.743 205.610 C 241.167 204.915,238.970 205.022,238.545 205.764 M140.803 208.579 C 142.154 208.952,144.954 211.393,145.306 212.506 C 145.452 212.966,145.702 214.095,145.863 215.015 C 146.025 215.935,146.322 217.008,146.524 217.398 C 147.058 218.432,147.029 223.701,146.481 225.011 C 146.256 225.550,145.960 226.701,145.825 227.568 C 145.129 232.012,142.676 233.947,137.767 233.926 C 134.901 233.914,133.723 233.621,132.544 232.625 C 130.908 231.243,130.626 230.873,130.177 229.518 C 129.920 228.743,129.466 227.779,129.168 227.375 C 128.336 226.247,128.336 216.241,129.168 215.113 C 129.466 214.709,129.920 213.737,130.177 212.953 C 130.840 210.931,133.018 208.907,134.932 208.535 C 136.435 208.242,139.670 208.266,140.803 208.579 M172.594 208.656 C 173.951 209.141,176.594 211.499,176.914 212.512 C 177.059 212.968,177.309 214.095,177.470 215.015 C 177.631 215.935,177.928 217.008,178.130 217.398 C 178.655 218.414,178.635 223.700,178.101 224.978 C 177.884 225.499,177.542 226.862,177.342 228.007 C 176.927 230.382,176.547 231.085,175.188 231.993 C 174.657 232.348,173.894 232.901,173.492 233.223 C 171.996 234.421,165.999 234.198,164.491 232.888 C 164.002 232.463,163.299 231.855,162.930 231.537 C 162.560 231.219,162.046 230.317,161.787 229.534 C 161.528 228.750,161.072 227.779,160.775 227.375 C 159.912 226.205,159.945 216.237,160.816 215.058 C 161.137 214.625,161.399 214.211,161.399 214.139 C 161.399 212.243,164.325 208.970,166.384 208.564 C 168.101 208.226,171.531 208.277,172.594 208.656 M203.709 208.584 C 204.318 208.901,205.399 209.851,206.303 210.862 C 208.665 213.507,208.661 213.500,208.864 215.122 C 209.741 222.118,209.132 228.702,207.484 230.052 C 207.397 230.123,207.130 230.565,206.890 231.033 C 206.649 231.502,206.051 232.077,205.558 232.312 C 205.066 232.546,204.663 232.839,204.663 232.963 C 204.663 234.232,197.630 234.312,196.312 233.057 C 195.989 232.750,195.314 232.195,194.811 231.824 C 194.125 231.317,193.777 230.772,193.422 229.644 C 193.161 228.816,192.698 227.802,192.393 227.390 C 191.550 226.249,191.539 216.254,192.381 215.113 C 192.679 214.709,193.133 213.737,193.390 212.953 C 193.942 211.273,196.184 208.984,197.668 208.587 C 198.968 208.238,203.040 208.237,203.709 208.584 M264.019 208.550 C 266.216 208.959,266.803 209.299,267.545 210.593 C 267.923 211.250,268.542 212.151,268.922 212.595 C 270.077 213.945,270.647 221.466,269.928 225.877 C 269.775 226.819,269.598 227.949,269.536 228.387 C 269.474 228.825,269.218 229.408,268.966 229.683 C 268.715 229.957,268.249 230.551,267.930 231.003 C 267.612 231.454,266.583 232.254,265.644 232.779 L 263.936 233.734 261.178 233.637 L 258.420 233.540 256.865 232.273 C 254.918 230.686,254.934 230.710,253.777 227.605 L 252.817 225.030 252.945 220.740 C 253.116 215.005,253.248 214.223,254.316 212.615 C 256.834 208.826,259.501 207.709,264.019 208.550 " stroke="none" fill="#848484" fill-rule="evenodd"></path><path id="path4" d="M133.519 33.923 C 131.417 34.428,128.670 36.636,127.983 38.372 C 127.792 38.854,127.415 39.497,127.145 39.800 C 126.207 40.852,126.176 42.937,126.171 106.591 L 126.166 169.529 127.473 172.200 C 128.192 173.669,128.896 174.870,129.037 174.870 C 129.179 174.870,129.793 175.384,130.403 176.012 C 131.374 177.011,131.704 177.180,133.049 177.372 C 135.711 177.751,263.876 177.648,265.498 177.266 C 267.179 176.869,269.677 174.552,270.207 172.898 C 270.385 172.344,270.778 171.619,271.081 171.287 L 271.632 170.684 271.632 105.873 L 271.632 41.062 270.365 38.817 C 269.041 36.472,268.570 36.008,266.122 34.639 L 264.637 33.808 199.482 33.769 C 163.646 33.747,133.963 33.817,133.519 33.923 M264.305 35.849 C 267.739 36.670,268.746 37.696,269.611 41.260 L 270.192 43.653 270.199 106.619 C 270.204 147.283,270.118 169.675,269.954 169.839 C 269.815 169.978,269.467 170.772,269.181 171.604 C 268.590 173.322,266.277 175.807,264.903 176.201 C 263.867 176.498,134.043 176.493,133.007 176.196 C 131.675 175.814,129.516 173.424,128.766 171.503 L 128.109 169.819 128.043 106.516 L 127.977 43.214 128.519 40.973 C 129.286 37.802,130.450 36.638,133.648 35.846 L 135.881 35.293 198.834 35.270 L 261.788 35.248 264.305 35.849 M253.191 39.639 C 252.514 39.912,252.181 40.480,251.938 41.775 C 251.766 42.693,251.733 42.719,251.210 42.353 C 250.908 42.142,250.413 41.969,250.110 41.969 C 249.605 41.969,248.845 41.376,247.982 40.309 C 247.303 39.470,244.301 39.944,244.301 40.891 C 244.301 41.835,241.637 43.892,240.483 43.838 C 238.640 43.753,237.955 44.137,237.426 45.551 C 237.177 46.217,236.859 46.907,236.719 47.085 C 236.551 47.300,236.561 47.525,236.748 47.751 C 237.599 48.776,237.231 49.867,236.010 49.939 C 234.207 50.044,233.813 50.188,232.645 51.164 C 231.306 52.283,230.631 52.305,229.546 51.268 C 228.474 50.244,227.686 50.364,225.521 51.879 C 223.872 53.033,216.422 60.491,215.860 61.551 C 215.677 61.895,215.425 62.176,215.300 62.176 C 215.176 62.176,214.451 62.682,213.690 63.301 C 211.872 64.778,212.174 64.736,201.480 65.006 L 192.210 65.240 190.600 66.007 C 189.247 66.652,188.534 66.804,186.140 66.957 C 182.441 67.193,180.867 67.499,179.973 68.156 C 179.573 68.450,178.524 68.807,177.641 68.949 C 175.159 69.351,174.251 69.633,173.658 70.186 C 173.357 70.466,172.463 70.884,171.670 71.114 C 170.878 71.344,169.892 71.848,169.480 72.233 C 168.209 73.420,165.867 74.352,164.156 74.352 C 163.627 74.352,162.936 74.514,162.620 74.712 C 162.305 74.909,161.450 75.209,160.720 75.377 C 158.851 75.808,157.834 76.751,157.388 78.464 C 157.188 79.229,156.785 80.079,156.492 80.352 C 155.695 81.094,155.745 83.221,156.582 84.216 C 157.101 84.832,157.232 85.341,157.360 87.232 C 157.646 91.467,157.933 92.943,158.629 93.770 C 159.077 94.303,159.374 95.119,159.593 96.419 C 159.849 97.933,160.058 98.437,160.666 99.005 C 161.241 99.542,161.479 100.070,161.661 101.215 C 161.862 102.471,162.053 102.849,162.816 103.497 C 163.369 103.967,163.731 104.509,163.731 104.866 C 163.731 105.728,164.419 107.236,164.896 107.419 C 165.122 107.506,165.536 108.026,165.817 108.576 C 166.097 109.125,166.660 109.747,167.068 109.958 C 167.616 110.242,167.885 110.645,168.103 111.511 C 168.386 112.634,169.075 113.571,171.287 115.842 C 171.810 116.379,172.314 117.057,172.407 117.350 C 172.500 117.642,172.901 118.049,173.298 118.255 C 173.695 118.460,174.160 118.965,174.330 119.377 C 174.506 119.801,175.026 120.309,175.533 120.551 C 176.023 120.785,176.425 121.110,176.425 121.274 C 176.425 121.633,181.995 127.202,182.354 127.202 C 182.494 127.202,182.685 127.446,182.780 127.744 C 182.874 128.042,183.341 128.449,183.818 128.648 C 184.294 128.847,184.837 129.327,185.023 129.715 C 185.210 130.103,185.771 130.689,186.269 131.015 C 186.768 131.342,187.494 131.896,187.882 132.245 C 188.270 132.595,188.911 133.087,189.307 133.338 C 189.702 133.589,190.211 133.998,190.437 134.246 C 190.664 134.494,191.370 134.921,192.007 135.194 C 192.644 135.467,193.346 135.967,193.567 136.305 C 193.789 136.643,194.540 137.200,195.236 137.543 C 195.933 137.887,196.761 138.421,197.077 138.730 C 197.394 139.039,198.106 139.427,198.660 139.593 C 199.215 139.760,200.091 140.231,200.607 140.641 C 201.123 141.051,202.094 141.525,202.765 141.694 C 203.435 141.863,204.374 142.343,204.851 142.762 C 205.327 143.181,205.859 143.527,206.032 143.532 C 208.106 143.588,209.969 144.063,210.644 144.710 C 211.529 145.558,212.768 145.791,217.963 146.083 C 220.141 146.206,221.618 146.400,221.728 146.578 C 222.510 147.844,226.291 148.049,227.502 146.891 C 227.949 146.464,228.486 146.114,228.695 146.114 C 230.154 146.114,231.937 144.207,232.245 142.317 C 232.342 141.724,232.584 141.025,232.783 140.762 C 232.981 140.500,233.151 139.702,233.160 138.990 C 233.180 137.318,234.460 133.584,235.322 132.684 C 235.790 132.196,236.114 131.405,236.397 130.059 C 236.620 129.000,236.966 127.952,237.166 127.732 C 237.853 126.972,238.101 125.818,238.463 121.684 C 238.692 119.067,238.942 117.467,239.141 117.344 C 239.975 116.829,240.203 113.997,240.300 102.979 C 240.421 89.241,240.406 89.395,241.775 88.524 C 242.166 88.275,242.487 87.909,242.487 87.711 C 242.487 87.514,242.866 87.036,243.329 86.649 C 243.792 86.262,244.293 85.726,244.441 85.457 C 244.590 85.187,246.107 83.540,247.813 81.797 C 252.268 77.244,252.721 76.553,252.719 74.298 C 252.717 72.813,252.625 72.412,252.200 72.051 C 250.705 70.780,250.621 70.505,251.602 70.095 C 252.850 69.574,253.092 69.200,253.309 67.454 L 253.498 65.933 255.052 65.797 C 257.961 65.542,259.475 64.005,259.245 61.540 L 259.098 59.962 260.054 59.450 C 261.105 58.887,262.838 55.947,262.386 55.495 C 262.256 55.365,261.988 54.646,261.791 53.898 C 261.594 53.151,261.248 52.335,261.023 52.087 C 260.474 51.480,261.049 50.055,262.464 48.516 C 263.775 47.091,263.875 45.665,262.740 44.599 C 262.338 44.221,261.792 43.579,261.527 43.173 C 261.262 42.767,260.571 42.138,259.992 41.775 C 259.412 41.413,258.838 40.947,258.717 40.741 C 258.104 39.699,254.717 39.024,253.191 39.639 M257.069 41.403 C 257.697 41.947,258.581 42.544,259.032 42.731 C 262.088 43.997,262.111 49.418,259.056 48.643 C 256.576 48.013,255.513 49.312,257.505 50.538 C 258.222 50.979,258.808 51.493,258.808 51.681 C 258.808 51.869,259.219 52.354,259.722 52.760 C 260.487 53.378,260.659 53.708,260.780 54.793 C 261.097 57.643,259.735 58.717,257.164 57.642 C 255.195 56.820,254.559 57.554,256.054 58.924 C 256.572 59.397,256.995 59.979,256.995 60.216 C 256.995 60.453,257.167 60.980,257.377 61.387 C 257.981 62.555,256.220 64.274,254.897 63.810 C 254.412 63.640,253.797 63.494,253.530 63.486 C 253.060 63.472,250.866 61.446,242.611 53.403 C 238.201 49.106,237.821 48.464,238.450 46.372 C 238.858 45.013,239.881 44.856,241.836 45.853 C 243.665 46.786,244.293 46.379,244.309 44.253 C 244.333 41.108,246.610 41.139,250.747 44.341 C 252.149 45.425,252.673 45.008,252.983 42.565 C 253.179 41.023,253.406 40.758,254.664 40.607 C 255.162 40.547,255.650 40.479,255.748 40.456 C 255.847 40.433,256.441 40.859,257.069 41.403 M246.826 48.806 C 246.236 49.255,246.252 49.810,246.872 50.371 C 247.953 51.349,249.026 50.034,248.038 48.942 C 247.511 48.360,247.426 48.351,246.826 48.806 M248.705 51.407 C 248.705 52.151,249.567 52.539,250.149 52.057 C 250.484 51.778,250.478 51.680,250.096 51.258 C 249.457 50.552,248.705 50.633,248.705 51.407 M237.837 51.831 C 238.148 52.269,238.671 52.729,238.999 52.853 C 239.327 52.978,239.751 53.405,239.941 53.802 C 240.132 54.200,240.657 54.760,241.108 55.047 C 241.559 55.335,242.054 55.838,242.208 56.165 C 242.362 56.493,242.846 56.912,243.285 57.096 C 243.724 57.281,244.221 57.710,244.391 58.050 C 244.561 58.390,244.988 58.811,245.342 58.985 C 245.695 59.159,246.168 59.627,246.391 60.026 C 246.615 60.425,247.118 60.907,247.509 61.097 C 247.900 61.287,248.288 61.637,248.372 61.874 C 248.624 62.587,249.274 63.212,249.763 63.212 C 250.017 63.212,250.492 63.590,250.821 64.051 C 251.149 64.512,251.637 65.109,251.906 65.377 C 252.376 65.847,252.390 67.670,251.930 68.415 C 251.498 69.114,246.677 67.544,246.643 66.694 C 246.628 66.318,245.253 65.026,244.869 65.026 C 244.699 65.026,244.560 64.812,244.560 64.552 C 244.560 63.987,243.469 63.337,242.893 63.558 C 242.004 63.900,242.596 64.902,243.782 65.066 C 244.264 65.132,244.451 65.334,244.510 65.849 C 244.605 66.667,244.968 67.016,245.855 67.138 C 246.343 67.206,246.523 67.405,246.585 67.949 C 246.644 68.459,246.966 68.857,247.686 69.312 C 248.246 69.665,248.705 70.095,248.705 70.265 C 248.705 70.436,249.168 71.048,249.734 71.625 C 251.706 73.634,251.291 76.262,248.587 78.886 C 246.141 81.259,240.412 87.689,239.853 88.688 C 239.737 88.895,239.474 90.096,239.269 91.358 C 239.063 92.620,238.746 94.148,238.565 94.754 C 238.293 95.660,238.298 96.050,238.590 96.956 C 239.139 98.662,239.274 108.648,238.762 109.698 C 238.522 110.189,238.215 112.370,237.957 115.415 C 237.505 120.736,237.198 122.705,236.659 123.745 C 236.469 124.112,236.120 125.535,235.884 126.908 C 235.648 128.281,235.234 129.812,234.965 130.311 C 234.696 130.810,234.129 131.902,233.706 132.737 C 233.282 133.573,232.673 134.536,232.354 134.876 C 231.698 135.575,231.395 137.176,231.366 140.108 C 231.345 142.247,231.199 142.621,229.887 143.895 C 228.165 145.567,226.019 145.864,221.244 145.088 C 220.460 144.961,218.821 144.848,217.601 144.838 C 215.805 144.822,214.972 144.668,213.209 144.025 C 212.012 143.588,210.154 143.051,209.079 142.832 C 208.004 142.613,206.891 142.225,206.606 141.969 C 206.120 141.532,203.948 140.674,203.328 140.674 C 203.174 140.674,202.666 140.338,202.199 139.928 C 201.732 139.518,200.784 138.977,200.092 138.725 C 199.400 138.474,198.601 138.002,198.316 137.676 C 198.031 137.351,197.177 136.841,196.418 136.543 C 195.658 136.245,194.757 135.669,194.415 135.263 C 194.073 134.856,193.441 134.377,193.010 134.199 C 192.580 134.021,192.228 133.782,192.228 133.668 C 192.228 133.555,191.791 133.198,191.256 132.876 C 190.722 132.553,189.853 131.908,189.325 131.441 C 188.797 130.974,187.902 130.356,187.336 130.067 C 186.770 129.779,186.233 129.310,186.143 129.027 C 186.053 128.743,185.608 128.249,185.153 127.928 C 184.698 127.608,184.126 127.096,183.882 126.791 C 183.637 126.486,183.113 126.101,182.716 125.936 C 182.319 125.772,181.796 125.289,181.553 124.865 C 181.311 124.440,180.815 123.958,180.452 123.793 C 180.090 123.627,179.793 123.384,179.793 123.251 C 179.793 123.119,179.297 122.511,178.692 121.900 C 178.086 121.289,177.333 120.513,177.018 120.174 C 176.703 119.836,176.237 119.353,175.982 119.101 C 174.716 117.849,173.617 116.610,172.940 115.674 C 172.527 115.104,171.974 114.426,171.709 114.167 C 171.445 113.908,170.939 113.238,170.585 112.677 C 170.231 112.117,169.850 111.658,169.737 111.658 C 169.625 111.658,169.281 111.139,168.973 110.504 C 168.664 109.870,168.117 109.157,167.755 108.920 C 167.394 108.683,167.098 108.339,167.098 108.154 C 167.098 107.970,166.656 107.254,166.116 106.565 C 165.576 105.875,164.932 104.776,164.686 104.122 C 164.439 103.469,163.969 102.700,163.641 102.415 C 163.312 102.129,162.897 101.323,162.717 100.624 C 162.305 99.021,161.638 97.409,161.387 97.409 C 161.082 97.409,160.852 96.687,160.233 93.782 C 159.914 92.286,159.469 90.304,159.244 89.378 C 157.603 82.625,157.539 81.997,158.280 79.889 C 159.182 77.323,160.799 76.171,163.501 76.167 C 165.488 76.165,167.415 75.689,168.124 75.025 C 168.486 74.686,169.272 74.164,169.870 73.865 C 170.467 73.565,171.054 73.146,171.173 72.933 C 171.292 72.720,172.251 72.254,173.303 71.896 C 174.356 71.538,175.401 71.078,175.627 70.874 C 175.852 70.670,177.543 70.204,179.384 69.838 C 181.225 69.471,183.576 68.880,184.609 68.524 C 185.666 68.159,187.089 67.872,187.867 67.867 C 188.627 67.862,190.181 67.689,191.321 67.483 C 192.461 67.277,193.805 67.106,194.308 67.104 C 194.810 67.101,195.457 66.933,195.746 66.731 C 196.147 66.451,197.699 66.332,202.345 66.226 C 205.686 66.150,209.469 65.975,210.751 65.838 C 212.034 65.701,213.217 65.579,213.380 65.567 C 213.614 65.549,215.621 63.804,216.623 62.747 C 225.423 53.465,226.005 52.923,227.398 52.700 C 228.597 52.509,230.389 53.211,231.476 54.298 C 231.808 54.630,232.385 54.978,232.759 55.072 C 233.143 55.168,233.610 55.575,233.834 56.008 C 234.052 56.430,234.572 56.894,234.991 57.039 C 235.441 57.196,235.751 57.489,235.751 57.757 C 235.751 58.291,236.423 58.934,237.241 59.184 C 237.562 59.281,237.824 59.569,237.824 59.822 C 237.824 60.363,238.491 61.006,239.313 61.256 C 239.652 61.360,239.896 61.641,239.896 61.929 C 239.896 62.583,241.016 63.303,241.697 63.087 C 242.699 62.769,242.287 61.544,241.039 61.132 C 240.477 60.947,240.155 60.674,240.155 60.383 C 240.155 59.844,239.487 59.201,238.666 58.951 C 238.345 58.853,238.083 58.566,238.083 58.313 C 238.083 57.817,237.456 57.173,236.719 56.911 C 236.467 56.822,236.149 56.452,236.010 56.088 C 235.872 55.725,235.349 55.186,234.849 54.890 C 233.870 54.313,233.495 52.100,234.249 51.347 C 234.938 50.658,237.220 50.966,237.837 51.831 M253.382 55.293 C 252.948 55.817,253.216 56.477,253.863 56.477 C 254.625 56.477,254.792 55.972,254.220 55.400 C 253.768 54.948,253.678 54.937,253.382 55.293 M150.648 96.502 C 150.505 96.550,149.964 96.660,149.446 96.747 C 148.928 96.833,148.214 97.194,147.860 97.548 C 147.232 98.175,146.410 98.402,143.201 98.831 C 142.429 98.934,141.669 99.250,141.157 99.680 C 140.508 100.227,139.871 100.430,138.012 100.684 C 135.984 100.962,135.574 101.106,134.862 101.797 C 134.411 102.233,133.865 102.591,133.647 102.591 C 133.043 102.591,132.227 103.638,131.932 104.793 C 131.787 105.363,131.599 106.004,131.515 106.218 C 131.287 106.798,132.676 109.406,133.420 109.793 C 134.951 110.591,143.005 109.809,143.005 108.863 C 143.005 108.519,144.220 108.031,145.077 108.031 C 146.489 108.031,148.460 107.468,149.186 106.856 C 149.721 106.407,150.555 106.143,152.352 105.855 C 154.273 105.547,154.904 105.337,155.313 104.869 C 155.599 104.542,156.328 103.886,156.932 103.411 C 158.402 102.255,158.546 100.331,157.254 99.093 C 156.826 98.684,156.477 98.211,156.477 98.043 C 156.477 96.711,152.855 95.753,150.648 96.502 M155.099 97.733 C 156.621 100.108,156.300 103.298,154.534 103.361 C 154.391 103.366,153.575 103.719,152.720 104.145 C 151.865 104.571,150.933 104.924,150.648 104.928 C 150.027 104.936,147.518 105.756,146.473 106.292 C 146.062 106.503,144.676 106.934,143.394 107.251 C 142.111 107.567,140.669 108.065,140.188 108.358 C 139.126 109.005,136.000 109.275,134.667 108.835 C 132.606 108.155,132.245 104.149,134.197 103.616 C 134.553 103.518,135.602 103.081,136.528 102.644 C 137.455 102.208,138.679 101.772,139.249 101.677 C 140.598 101.450,143.434 100.607,144.462 100.126 C 144.907 99.918,146.090 99.575,147.089 99.365 C 148.089 99.155,149.531 98.699,150.295 98.353 C 152.448 97.376,154.685 97.087,155.099 97.733 M162.095 113.164 C 161.353 113.225,160.869 113.490,160.152 114.226 C 159.468 114.928,158.818 115.296,157.862 115.524 C 156.985 115.733,156.300 116.097,155.866 116.585 C 155.502 116.993,154.769 117.447,154.236 117.594 C 153.703 117.741,153.027 118.137,152.734 118.474 C 152.442 118.810,151.651 119.295,150.977 119.550 C 150.261 119.821,149.486 120.363,149.113 120.853 C 148.639 121.474,148.193 121.736,147.390 121.864 C 146.662 121.981,146.065 122.296,145.571 122.825 C 145.166 123.258,144.409 123.730,143.888 123.874 C 143.368 124.018,142.694 124.400,142.390 124.725 C 142.087 125.049,141.490 125.495,141.062 125.715 C 139.201 126.676,138.571 128.256,138.974 130.947 C 139.189 132.379,139.749 132.817,142.042 133.347 C 142.925 133.551,143.794 133.840,143.974 133.989 C 144.189 134.168,144.411 134.174,144.624 134.006 C 144.802 133.866,145.508 133.542,146.193 133.286 C 147.020 132.977,147.563 132.578,147.811 132.100 C 148.110 131.521,148.425 131.343,149.410 131.195 C 150.346 131.055,150.879 130.775,151.655 130.013 C 152.215 129.465,152.877 129.016,153.126 129.016 C 153.374 129.016,154.056 128.616,154.639 128.129 C 155.223 127.641,156.138 127.104,156.672 126.935 C 157.206 126.766,158.015 126.232,158.471 125.749 C 158.927 125.266,159.545 124.870,159.844 124.870 C 160.550 124.870,161.657 124.292,162.289 123.593 C 162.564 123.289,163.289 122.915,163.899 122.761 C 165.646 122.321,168.523 119.383,168.761 117.796 C 169.229 114.674,166.530 112.799,162.095 113.164 M165.574 114.573 C 165.788 114.751,166.263 115.369,166.630 115.947 L 167.298 116.997 166.806 118.019 C 166.146 119.391,163.592 121.702,162.367 122.036 C 161.831 122.182,161.015 122.630,160.554 123.031 C 160.092 123.432,159.274 123.904,158.734 124.079 C 158.195 124.255,157.573 124.674,157.352 125.011 C 157.100 125.397,156.437 125.773,155.564 126.027 C 154.615 126.303,154.010 126.664,153.651 127.169 C 153.314 127.641,152.709 128.024,151.972 128.230 C 151.337 128.408,150.489 128.868,150.085 129.254 C 149.682 129.639,148.944 130.108,148.446 130.295 C 147.947 130.482,147.247 130.948,146.891 131.331 C 145.112 133.243,140.967 132.829,140.896 130.733 C 140.812 128.228,140.938 127.608,141.642 127.073 C 142.017 126.788,142.739 126.192,143.247 125.749 C 143.755 125.306,144.600 124.804,145.125 124.634 C 145.649 124.463,146.501 123.988,147.016 123.579 C 147.532 123.169,148.290 122.760,148.699 122.670 C 149.109 122.580,149.849 122.124,150.343 121.658 C 150.838 121.192,151.633 120.656,152.111 120.468 C 152.588 120.280,153.387 119.751,153.886 119.293 C 154.385 118.834,155.142 118.377,155.570 118.277 C 155.997 118.176,156.729 117.804,157.195 117.449 C 157.662 117.094,158.565 116.626,159.203 116.408 C 159.842 116.191,160.569 115.751,160.821 115.432 C 161.650 114.378,164.684 113.830,165.574 114.573 M174.684 126.148 C 173.834 126.360,164.160 135.725,163.508 136.968 C 163.344 137.281,162.086 138.621,160.714 139.947 C 156.561 143.960,155.464 145.173,155.292 145.947 C 155.195 146.385,154.822 146.861,154.379 147.113 C 153.967 147.347,153.629 147.645,153.629 147.774 C 153.628 147.904,153.087 148.506,152.427 149.111 L 151.227 150.213 151.217 152.244 C 151.205 154.676,151.665 155.766,152.881 156.190 C 153.925 156.554,156.996 156.562,157.940 156.203 C 158.989 155.804,164.512 150.032,164.690 149.149 C 164.770 148.752,165.082 148.296,165.384 148.136 C 165.686 147.976,166.657 147.077,167.542 146.138 C 168.427 145.199,169.333 144.255,169.555 144.041 C 169.913 143.698,170.558 143.058,171.573 142.038 C 171.748 141.863,172.183 141.427,172.539 141.070 C 173.711 139.896,175.007 138.480,175.395 137.949 C 175.605 137.661,176.098 137.222,176.490 136.971 C 176.881 136.721,177.202 136.340,177.202 136.125 C 177.202 135.910,177.596 135.502,178.076 135.218 C 180.297 133.908,181.040 130.623,179.653 128.256 C 178.457 126.215,176.962 125.581,174.684 126.148 M176.762 127.621 C 179.248 128.877,179.610 133.112,177.320 134.155 C 176.997 134.302,176.536 134.751,176.295 135.152 C 176.054 135.553,175.499 136.114,175.062 136.399 C 174.625 136.684,174.141 137.133,173.986 137.396 C 173.739 137.816,173.312 138.321,171.685 140.117 C 171.472 140.352,171.023 140.802,170.688 141.117 C 170.352 141.432,169.886 141.898,169.652 142.153 C 169.417 142.408,168.951 142.874,168.615 143.189 C 168.280 143.504,167.830 143.948,167.617 144.174 C 167.403 144.401,166.878 144.921,166.451 145.331 C 164.921 146.796,163.731 148.153,163.731 148.431 C 163.731 148.587,162.217 150.228,160.368 152.077 L 157.005 155.440 155.572 155.440 C 154.002 155.440,152.884 154.699,152.449 153.368 C 152.088 152.261,152.388 150.259,152.915 150.259 C 153.332 150.259,154.404 149.196,154.404 148.783 C 154.404 148.592,154.690 148.304,155.039 148.145 C 155.389 147.986,155.849 147.489,156.061 147.041 C 156.505 146.106,159.131 143.264,159.551 143.264 C 159.705 143.264,160.015 142.909,160.239 142.476 C 160.463 142.042,160.941 141.553,161.301 141.389 C 161.661 141.225,162.124 140.766,162.330 140.368 C 162.535 139.971,163.043 139.471,163.458 139.256 C 163.872 139.041,164.288 138.627,164.380 138.336 C 164.563 137.761,173.857 128.242,174.245 128.233 C 174.375 128.229,174.773 127.999,175.130 127.720 C 175.915 127.106,175.761 127.116,176.762 127.621 M186.788 138.357 C 186.004 139.204,185.326 139.944,185.282 140.000 C 185.237 140.056,185.040 140.710,184.844 141.453 C 184.634 142.250,184.257 142.966,183.926 143.198 C 183.295 143.640,182.642 145.019,182.642 145.911 C 182.643 146.269,182.281 146.810,181.726 147.280 C 180.977 147.916,180.771 148.310,180.594 149.449 C 180.422 150.560,180.216 150.967,179.577 151.468 C 179.033 151.893,178.725 152.404,178.619 153.055 C 178.269 155.204,178.187 155.422,177.674 155.585 C 177.347 155.688,176.857 156.388,176.389 157.421 C 175.973 158.339,175.469 159.152,175.270 159.229 C 174.437 159.548,173.992 163.350,174.644 164.569 C 176.620 168.261,182.958 167.528,183.761 163.515 C 183.839 163.124,184.256 162.401,184.687 161.907 C 185.119 161.413,185.607 160.445,185.773 159.752 C 185.939 159.059,186.399 158.125,186.794 157.675 C 187.189 157.225,187.650 156.334,187.819 155.695 C 187.988 155.056,188.459 154.184,188.865 153.756 C 189.292 153.306,189.734 152.434,189.913 151.684 C 190.112 150.857,190.538 150.058,191.094 149.474 C 191.689 148.847,192.036 148.168,192.195 147.317 C 192.333 146.580,192.696 145.793,193.088 145.382 C 194.761 143.629,194.775 138.601,193.107 138.601 C 192.894 138.601,192.300 138.193,191.787 137.694 C 190.195 136.148,188.639 136.355,186.788 138.357 M191.839 139.334 L 193.135 139.767 193.211 141.200 C 193.279 142.493,193.200 142.744,192.393 143.790 C 191.902 144.427,191.377 145.401,191.227 145.954 C 191.078 146.507,190.655 147.393,190.288 147.923 C 189.922 148.452,189.406 149.475,189.142 150.197 C 188.878 150.918,188.368 151.898,188.008 152.373 C 187.648 152.849,187.226 153.716,187.071 154.300 C 186.916 154.885,186.439 155.729,186.011 156.176 C 185.583 156.624,185.228 157.195,185.222 157.446 C 185.199 158.360,184.498 159.867,183.862 160.367 C 183.503 160.649,183.028 161.414,182.805 162.067 C 182.449 163.111,181.915 163.914,180.445 165.609 C 180.193 165.900,179.680 166.062,179.016 166.062 C 178.351 166.062,177.838 165.900,177.586 165.609 C 175.291 162.961,175.290 162.957,176.841 159.658 C 177.325 158.629,177.720 157.687,177.720 157.565 C 177.720 157.444,178.013 157.069,178.371 156.733 C 178.750 156.377,179.235 155.408,179.530 154.421 C 179.830 153.415,180.245 152.591,180.547 152.404 C 180.847 152.218,181.235 151.453,181.490 150.545 C 181.760 149.581,182.245 148.650,182.783 148.063 C 183.256 147.546,183.717 146.790,183.806 146.382 C 183.896 145.974,184.253 145.310,184.599 144.907 C 184.945 144.505,185.454 143.506,185.730 142.688 C 186.858 139.349,188.759 138.306,191.839 139.334 M203.877 145.058 C 202.621 145.304,202.544 145.371,201.811 146.864 C 201.456 147.587,201.092 148.180,201.002 148.183 C 200.590 148.193,199.759 151.145,199.516 153.466 C 199.299 155.528,199.116 156.214,198.572 156.999 C 198.008 157.813,197.841 158.488,197.552 161.113 C 197.340 163.040,197.046 164.499,196.790 164.890 C 196.196 165.796,196.275 167.031,197.022 168.502 C 197.377 169.203,197.668 169.925,197.668 170.107 C 197.668 170.850,198.790 171.244,200.900 171.240 C 203.513 171.235,204.098 170.941,204.760 169.301 C 205.047 168.588,205.372 167.943,205.481 167.867 C 205.990 167.511,206.540 165.483,206.850 162.817 C 207.127 160.433,207.309 159.734,207.836 159.027 C 208.615 157.981,208.756 157.430,209.057 154.245 C 209.193 152.806,209.460 151.518,209.697 151.157 C 210.311 150.220,210.192 149.120,209.262 147.135 C 208.203 144.875,207.059 144.434,203.877 145.058 M207.153 146.571 C 208.608 147.534,208.537 153.668,207.041 156.218 C 206.703 156.794,206.353 158.211,206.082 160.104 C 205.828 161.881,205.413 163.606,205.054 164.378 C 204.722 165.091,204.367 166.140,204.263 166.710 C 203.809 169.212,202.777 170.207,200.635 170.207 C 197.888 170.207,197.361 166.311,199.302 160.363 C 199.791 158.867,200.329 156.826,200.499 155.829 C 200.668 154.832,201.090 153.141,201.436 152.073 C 201.782 151.004,202.185 149.663,202.332 149.093 C 202.864 147.029,205.645 145.574,207.153 146.571 " stroke="none" fill="#fcac64" fill-rule="evenodd"></path></g></svg>